<svg xmlns="http://www.w3.org/2000/svg" width="145.333" height="327.333" viewBox="0 0 145.333 327.333"><g><path fill="#231F20" d="M26.135 27.03l29.5-12.832 28-.333 30.167 8.833 15.166 23.333s0 22.168.166 22.668c.168.5-6.832 13-6.832 13L104.636 93.03l-34.334 3.834-29-2.333-23.833-10-2.334-24.166 1.166-18.667 9.833-14.666z"/><path fill="#414042" d="M13.802 79.718h4.667v4.667H13.8zM19.468 79.718h4.667v4.667h-4.667zM19.51 85.406h4.667v4.667H19.51zM25.135 79.74h4.667v4.666h-4.667zM25.177 85.426h4.667v4.667h-4.667zM30.854 79.73h4.667v4.666h-4.666zM30.896 85.417h4.667v4.667h-4.667zM36.52 79.75h4.668v4.667H36.52zM36.563 85.437h4.667v4.667h-4.667zM42.187 79.75h4.667v4.667h-4.667zM42.23 85.437h4.666v4.667H42.23zM47.854 79.77h4.667v4.667h-4.666zM47.896 85.458h4.667v4.667h-4.667zM30.875 91.083h4.667v4.667h-4.667zM36.542 91.104h4.667v4.667H36.54zM42.208 91.104h4.667v4.667h-4.667zM47.875 91.125h4.667v4.667h-4.667zM53.573 79.76h4.667v4.667h-4.667zM53.615 85.448h4.667v4.667h-4.667zM59.24 79.78h4.667v4.668H59.24zM59.282 85.468h4.667v4.667H59.28zM64.906 79.78h4.667v4.668h-4.667zM64.948 85.468h4.667v4.667h-4.667zM70.573 79.8h4.667v4.668h-4.667zM70.615 85.49h4.667v4.666h-4.667zM53.593 91.115h4.667v4.667h-4.667zM59.26 91.135h4.667v4.667H59.26zM64.926 91.135h4.667v4.667h-4.667zM70.593 91.156h4.667v4.667h-4.667zM76.292 79.792h4.668v4.667h-4.668zM76.333 85.48H81v4.666h-4.667zM81.958 79.812h4.668v4.667h-4.668zM82 85.5h4.666v4.667H82zM87.625 79.812h4.666v4.667h-4.665zM87.667 85.5h4.668v4.667h-4.668zM93.292 79.833h4.668V84.5h-4.668zM93.333 85.52H98v4.667h-4.667zM76.312 91.146h4.667v4.667H76.31zM81.98 91.167h4.666v4.667H81.98zM87.645 91.167h4.667v4.667h-4.667zM93.312 91.187h4.667v4.667H93.31zM98.99 79.822h4.667v4.667H98.99zM99.032 85.51h4.668v4.667h-4.668zM104.656 79.822h4.667v4.667h-4.667zM104.698 85.51h4.668v4.667h-4.668zM110.323 79.843h4.668v4.667h-4.667zM110.366 85.53h4.666v4.667h-4.666zM99.01 91.177h4.666v4.667H99.01zM104.676 91.177h4.666v4.667h-4.666zM116.042 79.833h4.668V84.5h-4.668zM121.708 79.854h4.668v4.667h-4.668zM13.802 56.885h4.667v4.667H13.8zM13.844 62.573h4.667v4.667h-4.666zM19.468 56.885h4.667v4.667h-4.667zM19.51 62.573h4.667v4.667H19.51zM25.135 56.906h4.667v4.667h-4.667zM25.177 62.593h4.667v4.667h-4.667zM13.823 68.24h4.667v4.667h-4.667zM13.865 73.927h4.667v4.667h-4.667zM19.49 68.24h4.666v4.667H19.49zM19.53 73.927H24.2v4.667H19.53zM25.156 68.26h4.667v4.667h-4.667zM25.198 73.948h4.667v4.667h-4.667zM30.854 56.896h4.667v4.667h-4.666zM30.896 62.583h4.667v4.667h-4.667zM36.52 56.917h4.668v4.667H36.52zM36.563 62.604h4.667v4.667h-4.667zM42.187 56.917h4.667v4.667h-4.667zM42.23 62.604h4.666v4.667H42.23z"/><path fill="#00AEEF" d="M47.854 56.937h4.667v4.667h-4.666z"/><path fill="#414042" d="M47.896 62.625h4.667v4.667h-4.667zM30.875 68.25h4.667v4.667h-4.667zM30.917 73.938h4.667v4.667h-4.667zM36.542 68.27h4.667v4.668H36.54zM36.583 73.958h4.667v4.667h-4.667zM42.208 68.27h4.667v4.668h-4.667zM42.25 73.958h4.667v4.667H42.25zM47.875 68.292h4.667v4.667h-4.667zM47.917 73.98h4.667v4.666h-4.667z"/><path fill="#00AEEF" d="M53.573 56.927h4.667v4.667h-4.667z"/><path fill="#414042" d="M53.615 62.615h4.667v4.667h-4.667zM59.24 56.948h4.667v4.667H59.24zM59.282 62.635h4.667v4.667H59.28zM64.906 56.948h4.667v4.667h-4.667zM64.948 62.635h4.667v4.667h-4.667zM70.573 56.968h4.667v4.667h-4.667zM70.615 62.656h4.667v4.667h-4.667zM53.593 68.282h4.667v4.667h-4.667zM53.635 73.97h4.667v4.666h-4.667zM59.26 68.302h4.667v4.667H59.26zM59.302 73.99h4.667v4.667H59.3zM64.926 68.302h4.667v4.667h-4.667zM64.968 73.99h4.667v4.667h-4.667zM70.593 68.323h4.667v4.667h-4.667zM70.635 74.01h4.667v4.667h-4.667zM76.292 56.958h4.668v4.667h-4.668zM76.333 62.646H81v4.667h-4.667zM81.958 56.98h4.668v4.666h-4.668zM82 62.667h4.666v4.667H82z"/><path fill="#00AEEF" d="M87.625 56.98h4.666v4.666h-4.665z"/><path fill="#414042" d="M87.667 62.667h4.668v4.667h-4.668z"/><path fill="#00AEEF" d="M93.292 57h4.668v4.667h-4.668z"/><path fill="#414042" d="M93.333 62.687H98v4.667h-4.667zM76.312 68.313h4.667v4.667H76.31zM76.354 74h4.667v4.667h-4.666zM81.98 68.333h4.666V73H81.98zM82.02 74.02h4.668v4.668H82.02zM87.645 68.333h4.667V73h-4.667zM87.687 74.02h4.667v4.668h-4.667zM93.312 68.354h4.667v4.667H93.31zM93.354 74.042h4.667v4.667h-4.666zM98.99 56.99h4.667v4.666H98.99zM99.032 62.677h4.668v4.667h-4.668zM104.656 56.99h4.667v4.666h-4.667zM104.698 62.677h4.668v4.667h-4.668zM110.323 57.01h4.668v4.667h-4.667zM110.366 62.697h4.666v4.667h-4.666zM99.01 68.344h4.666v4.667H99.01zM99.05 74.03h4.67V78.7h-4.67zM104.676 68.344h4.666v4.667h-4.666zM104.717 74.03h4.668V78.7h-4.668zM110.342 68.364h4.668v4.667h-4.668zM110.385 74.052h4.666v4.667h-4.665zM116.042 57h4.668v4.667h-4.668zM116.083 62.688h4.668v4.667h-4.667zM121.708 57.02h4.668v4.668h-4.668zM121.75 62.708h4.666v4.667h-4.666zM127.375 57.02h4.666v4.668h-4.665zM127.417 62.708h4.668v4.667h-4.668zM116.062 68.354h4.667v4.667h-4.668zM116.104 74.042h4.667v4.667h-4.666zM121.73 68.375h4.666v4.667h-4.667zM121.77 74.062h4.668v4.667h-4.667zM127.395 68.375h4.667v4.667h-4.667zM13.844 39.74h4.667v4.666h-4.666zM19.468 34.052h4.667v4.667h-4.667zM19.51 39.74h4.667v4.666H19.51zM25.135 34.072h4.667v4.667h-4.667zM25.177 39.76h4.667v4.667h-4.667zM13.823 45.406h4.667v4.667h-4.667zM13.865 51.094h4.667v4.667h-4.667zM19.49 45.406h4.666v4.667H19.49zM19.53 51.094H24.2v4.667H19.53zM25.156 45.427h4.667v4.667h-4.667zM25.198 51.114h4.667v4.667h-4.667zM30.854 34.062h4.667v4.667h-4.666zM30.896 39.75h4.667v4.667h-4.667zM36.52 34.083h4.668v4.667H36.52zM36.563 39.77h4.667v4.668h-4.667zM42.187 34.083h4.667v4.667h-4.667zM42.23 39.77h4.666v4.668H42.23zM47.854 34.104h4.667v4.667h-4.666z"/><path fill="#00AEEF" d="M47.896 39.79h4.667v4.668h-4.667z"/><path fill="#414042" d="M30.875 45.417h4.667v4.667h-4.667zM30.917 51.104h4.667v4.667h-4.667zM36.542 45.438h4.667v4.667H36.54zM36.583 51.125h4.667v4.667h-4.667z"/><path fill="#00AEEF" d="M42.208 45.438h4.667v4.667h-4.667zM42.25 51.125h4.667v4.667H42.25zM47.875 45.458h4.667v4.667h-4.667zM47.917 51.146h4.667v4.667h-4.667z"/><path fill="#414042" d="M53.573 34.094h4.667v4.667h-4.667z"/><path fill="#00AEEF" d="M53.615 39.78h4.667v4.668h-4.667z"/><path fill="#414042" d="M59.24 34.114h4.667v4.667H59.24zM59.282 39.802h4.667v4.667H59.28zM64.906 34.114h4.667v4.667h-4.667zM64.948 39.802h4.667v4.667h-4.667zM70.573 34.135h4.667v4.667h-4.667zM70.615 39.822h4.667v4.667h-4.667z"/><path fill="#00AEEF" d="M53.593 45.448h4.667v4.667h-4.667zM53.635 51.136h4.667v4.667h-4.667zM59.26 45.47h4.667v4.666H59.26zM59.302 51.156h4.667v4.667H59.3z"/><path fill="#414042" d="M64.926 45.47h4.667v4.666h-4.667zM64.968 51.156h4.667v4.667h-4.667zM70.593 45.49h4.667v4.666h-4.667zM70.635 51.177h4.667v4.667h-4.667zM76.292 34.125h4.668v4.667h-4.668zM76.333 39.812H81v4.667h-4.667zM81.958 34.146h4.668v4.667h-4.668zM82 39.833h4.666V44.5H82zM87.625 34.146h4.666v4.667h-4.665z"/><path fill="#00AEEF" d="M87.667 39.833h4.668V44.5h-4.668z"/><path fill="#414042" d="M93.292 34.166h4.668v4.667h-4.668z"/><path fill="#00AEEF" d="M93.333 39.854H98v4.667h-4.667z"/><path fill="#414042" d="M76.312 45.48h4.667v4.666H76.31zM76.354 51.167h4.667v4.667h-4.666z"/><path fill="#00AEEF" d="M81.98 45.5h4.666v4.667H81.98zM82.02 51.188h4.668v4.667H82.02zM87.645 45.5h4.667v4.667h-4.667zM87.687 51.188h4.667v4.667h-4.667zM93.312 45.52h4.667v4.668H93.31zM93.354 51.208h4.667v4.667h-4.666z"/><path fill="#414042" d="M98.99 34.156h4.667v4.667H98.99zM99.032 39.843h4.668v4.667h-4.668zM104.656 34.156h4.667v4.667h-4.667zM104.698 39.843h4.668v4.667h-4.668zM110.323 34.176h4.668v4.667h-4.667zM110.366 39.864h4.666v4.667h-4.666z"/><path fill="#00AEEF" d="M99.01 45.51h4.666v4.667H99.01zM99.05 51.198h4.67v4.667h-4.67z"/><path fill="#414042" d="M104.676 45.51h4.666v4.667h-4.666zM104.717 51.198h4.668v4.667h-4.668zM110.342 45.53h4.668V50.2h-4.668zM110.385 51.218h4.666v4.667h-4.665zM116.042 34.167h4.668v4.667h-4.668zM116.083 39.854h4.668v4.667h-4.667zM121.708 34.187h4.668v4.667h-4.668zM121.75 39.875h4.666v4.667h-4.666zM127.417 39.875h4.668v4.667h-4.668zM116.062 45.52h4.667v4.668h-4.668zM116.104 51.208h4.667v4.667h-4.666zM121.73 45.542h4.666v4.667h-4.667zM121.77 51.23h4.668v4.666h-4.667zM127.395 45.542h4.667v4.667h-4.667zM127.437 51.23h4.667v4.666h-4.667zM19.53 28.26H24.2v4.668H19.53zM25.156 22.594h4.667v4.667h-4.667zM25.198 28.28h4.667v4.668h-4.667zM36.563 16.938h4.667v4.667h-4.667zM42.23 16.938h4.666v4.667H42.23zM47.896 16.958h4.667v4.667h-4.667zM30.875 22.584h4.667v4.667h-4.667zM30.917 28.27h4.667v4.668h-4.667zM36.542 22.604h4.667v4.667H36.54zM36.583 28.292h4.667v4.667h-4.667zM42.208 22.604h4.667v4.667h-4.667zM42.25 28.292h4.667v4.667H42.25zM47.875 22.625h4.667v4.667h-4.667zM47.917 28.312h4.667v4.667h-4.667zM53.573 11.26h4.667v4.668h-4.667zM53.615 16.948h4.667v4.667h-4.667zM59.24 11.28h4.667v4.668H59.24zM59.282 16.97h4.667v4.666H59.28zM64.906 11.28h4.667v4.668h-4.667zM64.948 16.97h4.667v4.666h-4.667zM70.573 11.302h4.667v4.667h-4.667zM70.615 16.99h4.667v4.666h-4.667zM53.593 22.615h4.667v4.667h-4.667zM53.635 28.303h4.667v4.667h-4.667zM59.26 22.636h4.667v4.667H59.26zM59.302 28.323h4.667v4.667H59.3zM64.926 22.636h4.667v4.667h-4.667zM64.968 28.323h4.667v4.667h-4.667zM70.593 22.656h4.667v4.667h-4.667zM70.635 28.344h4.667v4.667h-4.667zM76.292 11.292h4.668v4.667h-4.668zM76.333 16.98H81v4.666h-4.667zM81.958 11.312h4.668v4.667h-4.668zM82 17h4.666v4.667H82zM87.625 11.312h4.666v4.667h-4.665zM87.667 17h4.668v4.667h-4.668zM93.333 17.02H98v4.668h-4.667zM76.312 22.646h4.667v4.667H76.31zM76.354 28.334h4.667V33h-4.666zM81.98 22.667h4.666v4.667H81.98zM82.02 28.354h4.668v4.667H82.02zM87.645 22.667h4.667v4.667h-4.667zM87.687 28.354h4.667v4.667h-4.667zM93.312 22.688h4.667v4.667H93.31zM93.354 28.375h4.667v4.667h-4.666zM99.032 17.01h4.668v4.667h-4.668zM104.698 17.01h4.668v4.667h-4.668zM99.01 22.677h4.666v4.667H99.01zM99.05 28.365h4.67v4.667h-4.67zM104.676 22.677h4.666v4.667h-4.666zM104.717 28.365h4.668v4.667h-4.668zM110.342 22.698h4.668v4.667h-4.668zM110.385 28.385h4.666v4.667h-4.665zM116.104 28.375h4.667v4.667h-4.666z"/></g><path fill="#F1F2F2" d="M73.41.845C35.27.845 3.61 22.358 3.61 60.498s27.207 43.317 65.347 43.317c38.14 0 72.77-5.177 72.77-43.317S111.55.845 73.412.845zm-2.844 91.13c-27.518 0-47.146-3.737-47.146-31.253 0-27.517 22.844-43.038 50.36-43.038 27.52 0 49.29 15.52 49.29 43.038 0 27.516-24.987 31.252-52.504 31.252zM141.973 144.163c0 35.68-31.03 181.436-69.307 181.436C34.39 325.6 3.36 179.84 3.36 144.162c0-35.68 29.967-34.406 68.243-34.406 38.278 0 70.37-1.274 70.37 34.406z"/><path fill="#FF4D74" d="M96.98 166.384c-2.856-4.47-5.69-8.882-8.488-13.315-.332-.525-.567-1.142-.72-1.748-.705-2.856-.004-5.36 2.176-7.33 2.18-1.968 4.742-2.41 7.517-1.42 1.786.637 3.058 1.883 3.974 3.54.515-.29.997-.604 1.515-.847 3.5-1.642 7.632-.307 9.527 3.066 1.87 3.328.868 7.602-2.35 9.69-4.28 2.776-8.603 5.49-12.906 8.23-.075.048-.153.083-.247.134z"/><path fill="#231F20" d="M187.917 22.833h4.668V27.5h-4.668zM187.96 28.52h4.665v4.668h-4.666zM193.584 22.854h4.666v4.667h-4.666zM193.625 28.54h4.668v4.668h-4.668zM199.25 22.854h4.666v4.667h-4.666zM199.292 28.54h4.668v4.668h-4.668zM204.917 22.874h4.668v4.667h-4.668zM204.96 28.562h4.665v4.667h-4.666zM187.938 34.188h4.667v4.667h-4.667zM187.98 39.875h4.667v4.667h-4.667zM193.605 34.208h4.667v4.667h-4.667zM193.647 39.896h4.667v4.667h-4.667zM199.27 34.208h4.668v4.667h-4.667zM199.313 39.896h4.667v4.667h-4.667zM204.938 34.23h4.667v4.666h-4.667zM204.98 39.916h4.667v4.667h-4.667zM210.636 22.864h4.667v4.667h-4.667zM210.678 28.552h4.667v4.667h-4.667zM216.303 22.885h4.667v4.667h-4.667zM216.345 28.572h4.667v4.667h-4.667zM221.97 22.885h4.665v4.667h-4.666zM222.01 28.572h4.668v4.667h-4.667zM227.636 22.905h4.667v4.667h-4.667zM227.678 28.593h4.667v4.667h-4.667zM210.657 34.22h4.668v4.666h-4.668zM210.7 39.906h4.666v4.667H210.7zM216.325 34.24h4.666v4.666h-4.665zM216.366 39.927h4.668v4.667h-4.668zM221.99 34.24h4.667v4.666h-4.666zM222.032 39.927h4.668v4.667h-4.668zM227.657 34.26h4.668v4.667h-4.668zM227.7 39.947h4.666v4.667H227.7zM233.355 22.896h4.667v4.667h-4.667zM233.397 28.583h4.667v4.667h-4.667zM239.022 22.916h4.667v4.667h-4.668zM239.064 28.604h4.667v4.667h-4.666zM244.688 22.916h4.667v4.667h-4.667zM244.73 28.604h4.667v4.667h-4.667zM250.355 22.937h4.667v4.667h-4.667zM250.397 28.624h4.667v4.667h-4.667zM233.375 34.25h4.666v4.667h-4.665zM233.417 39.938h4.668v4.667h-4.668zM239.042 34.27h4.668v4.668h-4.668zM239.084 39.958h4.666v4.667h-4.666zM244.708 34.27h4.668v4.668h-4.668zM244.75 39.958h4.666v4.667h-4.666zM250.375 34.29h4.666v4.668h-4.665zM250.417 39.98h4.668v4.666h-4.668zM256.075 22.927h4.666v4.667h-4.665zM256.116 28.614h4.668v4.667h-4.668zM261.74 22.947h4.67v4.667h-4.67zM261.784 28.635h4.666v4.667h-4.666zM267.407 22.947h4.668v4.667h-4.668zM267.45 28.635h4.666v4.667h-4.666zM273.075 22.968h4.666v4.667h-4.665zM273.116 28.655h4.668v4.667h-4.668zM256.094 34.28h4.666v4.668h-4.666zM256.135 39.97h4.668v4.666h-4.668zM261.76 34.302h4.668v4.667h-4.668zM261.803 39.99h4.667v4.666h-4.667zM267.426 34.302h4.668v4.667h-4.668zM267.47 39.99h4.665v4.666h-4.666zM273.094 34.322h4.666v4.667h-4.666zM273.135 40.01h4.668v4.667h-4.668zM278.772 22.958h4.667v4.667h-4.668zM278.814 28.645h4.667v4.667h-4.666zM284.438 22.958h4.667v4.667h-4.667zM284.48 28.645h4.667v4.667h-4.667zM290.105 22.978h4.667v4.667h-4.667zM290.147 28.666h4.667v4.667h-4.667zM278.792 34.312h4.668v4.667h-4.668zM278.834 40h4.666v4.667h-4.666zM284.458 34.312h4.668v4.667h-4.668zM284.5 40h4.666v4.667H284.5zM290.125 34.333h4.666V39h-4.665zM290.167 40.02h4.668v4.667h-4.668zM295.825 22.968h4.666v4.667h-4.665zM295.866 28.656h4.668v4.667h-4.668zM301.49 22.99h4.67v4.666h-4.67zM301.534 28.676h4.666v4.667h-4.666zM307.157 22.99h4.668v4.666h-4.668zM307.2 28.676h4.666v4.667H307.2zM312.825 23.01h4.666v4.666h-4.665zM312.866 28.697h4.668v4.667h-4.668zM295.844 34.323h4.666v4.667h-4.666zM295.885 40.01h4.668v4.667h-4.668zM301.51 34.343h4.668v4.667h-4.668zM301.553 40.03h4.666V44.7h-4.667zM307.176 34.343h4.668v4.667h-4.668zM307.22 40.03h4.665V44.7h-4.666zM312.844 34.364h4.666v4.667h-4.666zM312.885 40.05h4.668v4.668h-4.668zM187.917 0h4.668v4.667h-4.668zM187.96 5.688h4.665v4.667h-4.666zM193.584.02h4.666V4.69h-4.666zM193.625 5.708h4.668v4.667h-4.668zM199.25.02h4.666V4.69h-4.666zM199.292 5.708h4.668v4.667h-4.668zM204.917.04h4.668V4.71h-4.668zM204.96 5.73h4.665v4.666h-4.666zM187.938 11.354h4.667v4.667h-4.667zM187.98 17.042h4.667v4.667h-4.667zM193.605 11.375h4.667v4.667h-4.667zM193.647 17.062h4.667v4.667h-4.667zM199.27 11.375h4.668v4.667h-4.667zM199.313 17.062h4.667v4.667h-4.667zM204.938 11.396h4.667v4.667h-4.667zM204.98 17.083h4.667v4.667h-4.667zM210.636.03h4.667V4.7h-4.667zM210.678 5.72h4.667v4.666h-4.667zM216.303.052h4.667V4.72h-4.667zM216.345 5.74h4.667v4.666h-4.667zM221.97.052h4.665V4.72h-4.666zM222.01 5.74h4.668v4.666h-4.667zM227.636.072h4.667V4.74h-4.667zM227.678 5.76h4.667v4.667h-4.667zM210.657 11.386h4.668v4.667h-4.668zM210.7 17.073h4.666v4.667H210.7zM216.325 11.406h4.666v4.667h-4.665zM216.366 17.094h4.668v4.667h-4.668zM221.99 11.406h4.667v4.667h-4.666zM222.032 17.094h4.668v4.667h-4.668zM227.657 11.427h4.668v4.667h-4.668zM227.7 17.114h4.666v4.667H227.7zM233.355.062h4.667V4.73h-4.667zM233.397 5.75h4.667v4.667h-4.667zM239.022.083h4.667V4.75h-4.668zM239.064 5.77h4.667v4.668h-4.666zM244.688.083h4.667V4.75h-4.667zM244.73 5.77h4.667v4.668h-4.667zM250.355.104h4.667V4.77h-4.667zM250.397 5.79h4.667v4.668h-4.667zM233.375 11.417h4.666v4.667h-4.665zM233.417 17.104h4.668v4.667h-4.668zM239.042 11.438h4.668v4.667h-4.668zM239.084 17.125h4.666v4.667h-4.666zM244.708 11.438h4.668v4.667h-4.668zM244.75 17.125h4.666v4.667h-4.666zM250.375 11.458h4.666v4.667h-4.665zM250.417 17.146h4.668v4.667h-4.668zM256.075.094h4.666V4.76h-4.665zM256.116 5.78h4.668v4.668h-4.668zM261.74.114h4.67V4.78h-4.67zM261.784 5.802h4.666v4.667h-4.666zM267.407.114h4.668V4.78h-4.668zM267.45 5.802h4.666v4.667h-4.666zM273.075.135h4.666v4.667h-4.665zM273.116 5.822h4.668v4.667h-4.668zM256.094 11.448h4.666v4.667h-4.666zM256.135 17.136h4.668v4.667h-4.668zM261.76 11.47h4.668v4.666h-4.668zM261.803 17.156h4.667v4.667h-4.667zM267.426 11.47h4.668v4.666h-4.668zM267.47 17.156h4.665v4.667h-4.666zM273.094 11.49h4.666v4.666h-4.666zM273.135 17.177h4.668v4.667h-4.668zM278.772.125h4.667v4.667h-4.668zM278.814 5.812h4.667v4.667h-4.666zM284.438.125h4.667v4.667h-4.667zM284.48 5.812h4.667v4.667h-4.667zM290.105.145h4.667v4.667h-4.667zM290.147 5.833h4.667V10.5h-4.667zM278.792 11.48h4.668v4.666h-4.668zM278.834 17.167h4.666v4.667h-4.666zM284.458 11.48h4.668v4.666h-4.668zM284.5 17.167h4.666v4.667H284.5zM290.125 11.5h4.666v4.667h-4.665zM290.167 17.187h4.668v4.667h-4.668zM295.825.135h4.666v4.667h-4.665zM295.866 5.823h4.668v4.667h-4.668zM301.49.156h4.67v4.667h-4.67zM301.534 5.843h4.666v4.667h-4.666zM307.157.156h4.668v4.667h-4.668zM307.2 5.843h4.666v4.667H307.2zM312.825.176h4.666v4.667h-4.665zM312.866 5.864h4.668v4.667h-4.668zM295.844 11.49h4.666v4.667h-4.666zM295.885 17.177h4.668v4.667h-4.668zM301.51 11.51h4.668v4.667h-4.668zM301.553 17.198h4.666v4.667h-4.667zM307.176 11.51h4.668v4.667h-4.668zM307.22 17.198h4.665v4.667h-4.666zM312.844 11.53h4.666V16.2h-4.666zM312.885 17.218h4.668v4.667h-4.668zM187.917-22.833h4.668v4.667h-4.668zM187.96-17.146h4.665v4.667h-4.666zM193.584-22.813h4.666v4.667h-4.666zM193.625-17.125h4.668v4.667h-4.668zM199.25-22.813h4.666v4.667h-4.666zM199.292-17.125h4.668v4.667h-4.668zM204.917-22.792h4.668v4.667h-4.668zM204.96-17.105h4.665v4.667h-4.666zM187.938-11.48h4.667v4.668h-4.667zM187.98-5.792h4.667v4.667h-4.667zM193.605-11.458h4.667v4.667h-4.667zM193.647-5.77h4.667v4.666h-4.667zM199.27-11.458h4.668v4.667h-4.667zM199.313-5.77h4.667v4.666h-4.667zM204.938-11.438h4.667v4.667h-4.667zM204.98-5.75h4.667v4.667h-4.667zM210.636-22.802h4.667v4.667h-4.667zM210.678-17.115h4.667v4.667h-4.667zM216.303-22.782h4.667v4.667h-4.667zM216.345-17.094h4.667v4.667h-4.667zM221.97-22.782h4.665v4.667h-4.666zM222.01-17.094h4.668v4.667h-4.667zM227.636-22.76h4.667v4.666h-4.667zM227.678-17.074h4.667v4.667h-4.667zM210.657-11.448h4.668v4.667h-4.668zM210.7-5.76h4.666v4.667H210.7zM216.325-11.427h4.666v4.667h-4.665zM216.366-5.74h4.668v4.667h-4.668zM221.99-11.427h4.667v4.667h-4.666zM222.032-5.74h4.668v4.667h-4.668zM227.657-11.407h4.668v4.667h-4.668zM227.7-5.72h4.666v4.668H227.7zM233.355-22.77h4.667v4.666h-4.667zM233.397-17.083h4.667v4.667h-4.667zM239.022-22.75h4.667v4.667h-4.668zM239.064-17.063h4.667v4.667h-4.666zM244.688-22.75h4.667v4.667h-4.667zM244.73-17.063h4.667v4.667h-4.667zM250.355-22.73h4.667v4.667h-4.667zM250.397-17.042h4.667v4.667h-4.667zM233.375-11.417h4.666v4.667h-4.665zM233.417-5.73h4.668v4.668h-4.668zM239.042-11.396h4.668v4.667h-4.668zM239.084-5.708h4.666v4.667h-4.666zM244.708-11.396h4.668v4.667h-4.668zM244.75-5.708h4.666v4.667h-4.666zM250.375-11.375h4.666v4.667h-4.665zM250.417-5.688h4.668v4.667h-4.668zM256.075-22.74h4.666v4.667h-4.665zM256.116-17.052h4.668v4.667h-4.668zM261.74-22.72h4.67v4.668h-4.67zM261.784-17.032h4.666v4.667h-4.666zM267.407-22.72h4.668v4.668h-4.668zM267.45-17.032h4.666v4.667h-4.666zM273.075-22.7h4.666v4.668h-4.665zM273.116-17.01h4.668v4.666h-4.668zM256.094-11.385h4.666v4.667h-4.666zM256.135-5.698h4.668v4.667h-4.668zM261.76-11.365h4.668v4.667h-4.668zM261.803-5.677h4.667v4.667h-4.667zM267.426-11.365h4.668v4.667h-4.668zM267.47-5.677h4.665v4.667h-4.666zM273.094-11.344h4.666v4.667h-4.666zM273.135-5.657h4.668V-.99h-4.668zM278.772-22.71h4.667v4.668h-4.668zM278.814-17.02h4.667v4.666h-4.666zM284.438-22.71h4.667v4.668h-4.667zM284.48-17.02h4.667v4.666h-4.667zM290.105-22.688h4.667v4.667h-4.667zM290.147-17h4.667v4.666h-4.667zM278.792-11.354h4.668v4.667h-4.668zM278.834-5.667h4.666V-1h-4.666zM284.458-11.354h4.668v4.667h-4.668zM284.5-5.667h4.666V-1H284.5zM290.125-11.334h4.666v4.667h-4.665zM290.167-5.646h4.668V-.98h-4.668zM295.825-22.698h4.666v4.667h-4.665zM295.866-17.01h4.668v4.666h-4.668zM301.49-22.678h4.67v4.667h-4.67zM301.534-16.99h4.666v4.667h-4.666zM307.157-22.678h4.668v4.667h-4.668zM307.2-16.99h4.666v4.667H307.2zM312.825-22.657h4.666v4.667h-4.665zM312.866-16.97h4.668v4.667h-4.668zM295.844-11.344h4.666v4.667h-4.666zM295.885-5.656h4.668V-.99h-4.668zM301.51-11.323h4.668v4.667h-4.668zM301.553-5.636h4.666V-.97h-4.667zM307.176-11.323h4.668v4.667h-4.668zM307.22-5.636h4.665V-.97h-4.666zM312.844-11.303h4.666v4.667h-4.666zM312.885-5.615h4.668v4.667h-4.668zM187.917-45.667h4.668V-41h-4.668zM187.96-39.98h4.665v4.668h-4.666zM193.584-45.646h4.666v4.667h-4.666zM193.625-39.958h4.668v4.667h-4.668zM199.25-45.646h4.666v4.667h-4.666zM199.292-39.958h4.668v4.667h-4.668zM204.917-45.625h4.668v4.667h-4.668zM204.96-39.938h4.665v4.667h-4.666zM187.938-34.312h4.667v4.667h-4.667zM187.98-28.625h4.667v4.667h-4.667zM193.605-34.292h4.667v4.667h-4.667zM193.647-28.604h4.667v4.667h-4.667zM199.27-34.292h4.668v4.667h-4.667zM199.313-28.604h4.667v4.667h-4.667zM204.938-34.27h4.667v4.666h-4.667zM204.98-28.583h4.667v4.667h-4.667zM210.636-45.635h4.667v4.667h-4.667zM210.678-39.948h4.667v4.667h-4.667zM216.303-45.615h4.667v4.667h-4.667zM216.345-39.927h4.667v4.667h-4.667zM221.97-45.615h4.665v4.667h-4.666zM222.01-39.927h4.668v4.667h-4.667zM227.636-45.594h4.667v4.667h-4.667zM227.678-39.907h4.667v4.667h-4.667zM210.657-34.28h4.668v4.666h-4.668zM210.7-28.593h4.666v4.667H210.7zM216.325-34.26h4.666v4.667h-4.665zM216.366-28.573h4.668v4.667h-4.668zM221.99-34.26h4.667v4.667h-4.666zM222.032-28.573h4.668v4.667h-4.668zM227.657-34.24h4.668v4.667h-4.668zM227.7-28.552h4.666v4.667H227.7zM233.355-45.604h4.667v4.667h-4.667zM233.397-39.917h4.667v4.667h-4.667zM239.022-45.583h4.667v4.667h-4.668zM239.064-39.896h4.667v4.667h-4.666zM244.688-45.583h4.667v4.667h-4.667zM244.73-39.896h4.667v4.667h-4.667zM250.355-45.563h4.667v4.667h-4.667zM250.397-39.875h4.667v4.667h-4.667zM233.375-34.25h4.666v4.667h-4.665zM233.417-28.562h4.668v4.667h-4.668zM239.042-34.23h4.668v4.668h-4.668zM239.084-28.542h4.666v4.667h-4.666zM244.708-34.23h4.668v4.668h-4.668zM244.75-28.542h4.666v4.667h-4.666zM250.375-34.208h4.666v4.667h-4.665zM250.417-28.52h4.668v4.666h-4.668zM256.075-45.573h4.666v4.667h-4.665zM256.116-39.885h4.668v4.667h-4.668zM261.74-45.552h4.67v4.667h-4.67zM261.784-39.865h4.666v4.667h-4.666zM267.407-45.552h4.668v4.667h-4.668zM267.45-39.865h4.666v4.667h-4.666zM273.075-45.532h4.666v4.667h-4.665zM273.116-39.844h4.668v4.667h-4.668zM256.094-34.218h4.666v4.667h-4.666zM256.135-28.53h4.668v4.666h-4.668zM261.76-34.198h4.668v4.667h-4.668zM261.803-28.51h4.667v4.667h-4.667zM267.426-34.198h4.668v4.667h-4.668zM267.47-28.51h4.665v4.667h-4.666zM273.094-34.177h4.666v4.667h-4.666zM273.135-28.49h4.668v4.667h-4.668zM278.772-45.542h4.667v4.667h-4.668zM278.814-39.854h4.667v4.667h-4.666zM284.438-45.542h4.667v4.667h-4.667zM284.48-39.854h4.667v4.667h-4.667zM290.105-45.52h4.667v4.666h-4.667zM290.147-39.834h4.667v4.667h-4.667zM278.792-34.188h4.668v4.667h-4.668zM278.834-28.5h4.666v4.667h-4.666zM284.458-34.188h4.668v4.667h-4.668zM284.5-28.5h4.666v4.667H284.5zM290.125-34.167h4.666v4.667h-4.665zM290.167-28.48h4.668v4.668h-4.668zM295.825-45.53h4.666v4.666h-4.665zM295.866-39.844h4.668v4.667h-4.668zM301.49-45.51h4.67v4.666h-4.67zM301.534-39.823h4.666v4.667h-4.666zM307.157-45.51h4.668v4.666h-4.668zM307.2-39.823h4.666v4.667H307.2zM312.825-45.49h4.666v4.667h-4.665zM312.866-39.803h4.668v4.667h-4.668zM295.844-34.177h4.666v4.667h-4.666zM295.885-28.49h4.668v4.668h-4.668zM301.51-34.156h4.668v4.667h-4.668zM301.553-28.47h4.666v4.668h-4.667zM307.176-34.156h4.668v4.667h-4.668zM307.22-28.47h4.665v4.668h-4.666zM312.844-34.136h4.666v4.667h-4.666zM312.885-28.448h4.668v4.667h-4.668z"/></svg>