<svg xmlns="http://www.w3.org/2000/svg" width="145.333" height="327.333" viewBox="0 0 145.333 327.333"><path fill="#F1F2F2" d="M73.41.845C35.27.845 3.608 22.358 3.608 60.498s27.207 43.317 65.347 43.317c38.14 0 72.77-5.177 72.77-43.317S111.55.845 73.41.845zm-2.844 91.13c-27.518 0-47.146-3.737-47.146-31.253 0-27.517 22.844-43.038 50.36-43.038 27.52 0 49.29 15.52 49.29 43.038 0 27.516-24.987 31.252-52.504 31.252zM141.973 144.163c0 35.68-31.03 181.436-69.307 181.436C34.39 325.6 3.36 179.842 3.36 144.162s29.967-34.406 68.243-34.406c38.278 0 70.37-1.274 70.37 34.406z"/><path fill-rule="evenodd" clip-rule="evenodd" fill="#FF4D74" d="M53.82 165.923c-4.55-2.727-9.052-5.414-13.535-8.132-.53-.32-1.017-.767-1.422-1.242-1.907-2.24-2.396-4.796-1.323-7.53 1.072-2.733 3.168-4.273 6.094-4.624 1.883-.226 3.577.322 5.135 1.397.33-.488.622-.986.978-1.434 2.4-3.03 6.694-3.678 9.895-1.505 3.158 2.144 4.167 6.417 2.218 9.72-2.592 4.395-5.25 8.75-7.878 13.124-.047.074-.1.14-.162.23z"/></svg>