<svg xmlns="http://www.w3.org/2000/svg" width="145.333" height="327.333" viewBox="0 0 145.333 327.333"><path fill="#F1F2F2" d="M73.41.845C35.27.845 3.61 22.358 3.61 60.498s27.207 43.317 65.347 43.317c38.14 0 72.77-5.177 72.77-43.317S111.55.845 73.412.845zm-2.844 91.13c-27.518 0-47.146-3.737-47.146-31.253 0-27.517 22.844-43.038 50.36-43.038 27.52 0 49.29 15.52 49.29 43.038 0 27.516-24.987 31.252-52.504 31.252zM141.973 144.163c0 35.68-31.03 181.436-69.307 181.436C34.39 325.6 3.36 179.84 3.36 144.162c0-35.68 29.967-34.406 68.243-34.406 38.278 0 70.37-1.274 70.37 34.406z"/><path fill="#FF4D74" d="M96.98 166.384c-2.856-4.47-5.69-8.882-8.488-13.315-.332-.525-.567-1.142-.72-1.748-.705-2.856-.004-5.36 2.176-7.33 2.18-1.968 4.742-2.41 7.517-1.42 1.786.637 3.058 1.883 3.974 3.54.515-.29.997-.604 1.515-.847 3.5-1.642 7.632-.307 9.527 3.066 1.87 3.328.868 7.602-2.35 9.69-4.28 2.776-8.603 5.49-12.906 8.23-.075.048-.153.083-.247.134z"/><path fill="#231F20" d="M187.917 22.833h4.668V27.5h-4.668zM187.96 28.52h4.665v4.668h-4.666zM193.584 22.854h4.666v4.667h-4.666zM193.625 28.54h4.668v4.668h-4.668zM199.25 22.854h4.666v4.667h-4.666zM199.292 28.54h4.668v4.668h-4.668zM204.917 22.874h4.668v4.667h-4.668zM204.96 28.562h4.665v4.667h-4.666zM187.938 34.188h4.667v4.667h-4.667zM187.98 39.875h4.667v4.667h-4.667zM193.605 34.208h4.667v4.667h-4.667zM193.647 39.896h4.667v4.667h-4.667zM199.27 34.208h4.668v4.667h-4.667zM199.313 39.896h4.667v4.667h-4.667zM204.938 34.23h4.667v4.666h-4.667zM204.98 39.916h4.667v4.667h-4.667zM210.636 22.864h4.667v4.667h-4.667zM210.678 28.552h4.667v4.667h-4.667zM216.303 22.885h4.667v4.667h-4.667zM216.345 28.572h4.667v4.667h-4.667zM221.97 22.885h4.665v4.667h-4.666zM222.01 28.572h4.668v4.667h-4.667zM227.636 22.905h4.667v4.667h-4.667zM227.678 28.593h4.667v4.667h-4.667zM210.657 34.22h4.668v4.666h-4.668zM210.7 39.906h4.666v4.667H210.7zM216.325 34.24h4.666v4.666h-4.665zM216.366 39.927h4.668v4.667h-4.668zM221.99 34.24h4.667v4.666h-4.666zM222.032 39.927h4.668v4.667h-4.668zM227.657 34.26h4.668v4.667h-4.668zM227.7 39.947h4.666v4.667H227.7zM233.355 22.896h4.667v4.667h-4.667zM233.397 28.583h4.667v4.667h-4.667zM239.022 22.916h4.667v4.667h-4.668zM239.064 28.604h4.667v4.667h-4.666zM244.688 22.916h4.667v4.667h-4.667zM244.73 28.604h4.667v4.667h-4.667zM250.355 22.937h4.667v4.667h-4.667zM250.397 28.624h4.667v4.667h-4.667zM233.375 34.25h4.666v4.667h-4.665zM233.417 39.938h4.668v4.667h-4.668zM239.042 34.27h4.668v4.668h-4.668zM239.084 39.958h4.666v4.667h-4.666zM244.708 34.27h4.668v4.668h-4.668zM244.75 39.958h4.666v4.667h-4.666zM250.375 34.29h4.666v4.668h-4.665zM250.417 39.98h4.668v4.666h-4.668zM256.075 22.927h4.666v4.667h-4.665zM256.116 28.614h4.668v4.667h-4.668zM261.74 22.947h4.67v4.667h-4.67zM261.784 28.635h4.666v4.667h-4.666zM267.407 22.947h4.668v4.667h-4.668zM267.45 28.635h4.666v4.667h-4.666zM273.075 22.968h4.666v4.667h-4.665zM273.116 28.655h4.668v4.667h-4.668zM256.094 34.28h4.666v4.668h-4.666zM256.135 39.97h4.668v4.666h-4.668zM261.76 34.302h4.668v4.667h-4.668zM261.803 39.99h4.667v4.666h-4.667zM267.426 34.302h4.668v4.667h-4.668zM267.47 39.99h4.665v4.666h-4.666zM273.094 34.322h4.666v4.667h-4.666zM273.135 40.01h4.668v4.667h-4.668zM278.772 22.958h4.667v4.667h-4.668zM278.814 28.645h4.667v4.667h-4.666zM284.438 22.958h4.667v4.667h-4.667zM284.48 28.645h4.667v4.667h-4.667zM290.105 22.978h4.667v4.667h-4.667zM290.147 28.666h4.667v4.667h-4.667zM278.792 34.312h4.668v4.667h-4.668zM278.834 40h4.666v4.667h-4.666zM284.458 34.312h4.668v4.667h-4.668zM284.5 40h4.666v4.667H284.5zM290.125 34.333h4.666V39h-4.665zM290.167 40.02h4.668v4.667h-4.668zM295.825 22.968h4.666v4.667h-4.665zM295.866 28.656h4.668v4.667h-4.668zM301.49 22.99h4.67v4.666h-4.67zM301.534 28.676h4.666v4.667h-4.666zM307.157 22.99h4.668v4.666h-4.668zM307.2 28.676h4.666v4.667H307.2zM312.825 23.01h4.666v4.666h-4.665zM312.866 28.697h4.668v4.667h-4.668zM295.844 34.323h4.666v4.667h-4.666zM295.885 40.01h4.668v4.667h-4.668zM301.51 34.343h4.668v4.667h-4.668zM301.553 40.03h4.666V44.7h-4.667zM307.176 34.343h4.668v4.667h-4.668zM307.22 40.03h4.665V44.7h-4.666zM312.844 34.364h4.666v4.667h-4.666zM312.885 40.05h4.668v4.668h-4.668zM187.917 0h4.668v4.667h-4.668zM187.96 5.688h4.665v4.667h-4.666zM193.584.02h4.666V4.69h-4.666zM193.625 5.708h4.668v4.667h-4.668zM199.25.02h4.666V4.69h-4.666zM199.292 5.708h4.668v4.667h-4.668zM204.917.04h4.668V4.71h-4.668zM204.96 5.73h4.665v4.666h-4.666zM187.938 11.354h4.667v4.667h-4.667zM187.98 17.042h4.667v4.667h-4.667zM193.605 11.375h4.667v4.667h-4.667zM193.647 17.062h4.667v4.667h-4.667zM199.27 11.375h4.668v4.667h-4.667zM199.313 17.062h4.667v4.667h-4.667zM204.938 11.396h4.667v4.667h-4.667zM204.98 17.083h4.667v4.667h-4.667zM210.636.03h4.667V4.7h-4.667zM210.678 5.72h4.667v4.666h-4.667zM216.303.052h4.667V4.72h-4.667zM216.345 5.74h4.667v4.666h-4.667zM221.97.052h4.665V4.72h-4.666zM222.01 5.74h4.668v4.666h-4.667zM227.636.072h4.667V4.74h-4.667zM227.678 5.76h4.667v4.667h-4.667zM210.657 11.386h4.668v4.667h-4.668zM210.7 17.073h4.666v4.667H210.7zM216.325 11.406h4.666v4.667h-4.665zM216.366 17.094h4.668v4.667h-4.668zM221.99 11.406h4.667v4.667h-4.666zM222.032 17.094h4.668v4.667h-4.668zM227.657 11.427h4.668v4.667h-4.668zM227.7 17.114h4.666v4.667H227.7zM233.355.062h4.667V4.73h-4.667zM233.397 5.75h4.667v4.667h-4.667zM239.022.083h4.667V4.75h-4.668zM239.064 5.77h4.667v4.668h-4.666zM244.688.083h4.667V4.75h-4.667zM244.73 5.77h4.667v4.668h-4.667zM250.355.104h4.667V4.77h-4.667zM250.397 5.79h4.667v4.668h-4.667zM233.375 11.417h4.666v4.667h-4.665zM233.417 17.104h4.668v4.667h-4.668zM239.042 11.438h4.668v4.667h-4.668zM239.084 17.125h4.666v4.667h-4.666zM244.708 11.438h4.668v4.667h-4.668zM244.75 17.125h4.666v4.667h-4.666zM250.375 11.458h4.666v4.667h-4.665zM250.417 17.146h4.668v4.667h-4.668zM256.075.094h4.666V4.76h-4.665zM256.116 5.78h4.668v4.668h-4.668zM261.74.114h4.67V4.78h-4.67zM261.784 5.802h4.666v4.667h-4.666zM267.407.114h4.668V4.78h-4.668zM267.45 5.802h4.666v4.667h-4.666zM273.075.135h4.666v4.667h-4.665zM273.116 5.822h4.668v4.667h-4.668zM256.094 11.448h4.666v4.667h-4.666zM256.135 17.136h4.668v4.667h-4.668zM261.76 11.47h4.668v4.666h-4.668zM261.803 17.156h4.667v4.667h-4.667zM267.426 11.47h4.668v4.666h-4.668zM267.47 17.156h4.665v4.667h-4.666zM273.094 11.49h4.666v4.666h-4.666zM273.135 17.177h4.668v4.667h-4.668zM278.772.125h4.667v4.667h-4.668zM278.814 5.812h4.667v4.667h-4.666zM284.438.125h4.667v4.667h-4.667zM284.48 5.812h4.667v4.667h-4.667zM290.105.145h4.667v4.667h-4.667zM290.147 5.833h4.667V10.5h-4.667zM278.792 11.48h4.668v4.666h-4.668zM278.834 17.167h4.666v4.667h-4.666zM284.458 11.48h4.668v4.666h-4.668zM284.5 17.167h4.666v4.667H284.5zM290.125 11.5h4.666v4.667h-4.665zM290.167 17.187h4.668v4.667h-4.668zM295.825.135h4.666v4.667h-4.665zM295.866 5.823h4.668v4.667h-4.668zM301.49.156h4.67v4.667h-4.67zM301.534 5.843h4.666v4.667h-4.666zM307.157.156h4.668v4.667h-4.668zM307.2 5.843h4.666v4.667H307.2zM312.825.176h4.666v4.667h-4.665zM312.866 5.864h4.668v4.667h-4.668zM295.844 11.49h4.666v4.667h-4.666zM295.885 17.177h4.668v4.667h-4.668zM301.51 11.51h4.668v4.667h-4.668zM301.553 17.198h4.666v4.667h-4.667zM307.176 11.51h4.668v4.667h-4.668zM307.22 17.198h4.665v4.667h-4.666zM312.844 11.53h4.666V16.2h-4.666zM312.885 17.218h4.668v4.667h-4.668zM187.917-22.833h4.668v4.667h-4.668zM187.96-17.146h4.665v4.667h-4.666zM193.584-22.813h4.666v4.667h-4.666zM193.625-17.125h4.668v4.667h-4.668zM199.25-22.813h4.666v4.667h-4.666zM199.292-17.125h4.668v4.667h-4.668zM204.917-22.792h4.668v4.667h-4.668zM204.96-17.105h4.665v4.667h-4.666zM187.938-11.48h4.667v4.668h-4.667zM187.98-5.792h4.667v4.667h-4.667zM193.605-11.458h4.667v4.667h-4.667zM193.647-5.77h4.667v4.666h-4.667zM199.27-11.458h4.668v4.667h-4.667zM199.313-5.77h4.667v4.666h-4.667zM204.938-11.438h4.667v4.667h-4.667zM204.98-5.75h4.667v4.667h-4.667zM210.636-22.802h4.667v4.667h-4.667zM210.678-17.115h4.667v4.667h-4.667zM216.303-22.782h4.667v4.667h-4.667zM216.345-17.094h4.667v4.667h-4.667zM221.97-22.782h4.665v4.667h-4.666zM222.01-17.094h4.668v4.667h-4.667zM227.636-22.76h4.667v4.666h-4.667zM227.678-17.074h4.667v4.667h-4.667zM210.657-11.448h4.668v4.667h-4.668zM210.7-5.76h4.666v4.667H210.7zM216.325-11.427h4.666v4.667h-4.665zM216.366-5.74h4.668v4.667h-4.668zM221.99-11.427h4.667v4.667h-4.666zM222.032-5.74h4.668v4.667h-4.668zM227.657-11.407h4.668v4.667h-4.668zM227.7-5.72h4.666v4.668H227.7zM233.355-22.77h4.667v4.666h-4.667zM233.397-17.083h4.667v4.667h-4.667zM239.022-22.75h4.667v4.667h-4.668zM239.064-17.063h4.667v4.667h-4.666zM244.688-22.75h4.667v4.667h-4.667zM244.73-17.063h4.667v4.667h-4.667zM250.355-22.73h4.667v4.667h-4.667zM250.397-17.042h4.667v4.667h-4.667zM233.375-11.417h4.666v4.667h-4.665zM233.417-5.73h4.668v4.668h-4.668zM239.042-11.396h4.668v4.667h-4.668zM239.084-5.708h4.666v4.667h-4.666zM244.708-11.396h4.668v4.667h-4.668zM244.75-5.708h4.666v4.667h-4.666zM250.375-11.375h4.666v4.667h-4.665zM250.417-5.688h4.668v4.667h-4.668zM256.075-22.74h4.666v4.667h-4.665zM256.116-17.052h4.668v4.667h-4.668zM261.74-22.72h4.67v4.668h-4.67zM261.784-17.032h4.666v4.667h-4.666zM267.407-22.72h4.668v4.668h-4.668zM267.45-17.032h4.666v4.667h-4.666zM273.075-22.7h4.666v4.668h-4.665zM273.116-17.01h4.668v4.666h-4.668zM256.094-11.385h4.666v4.667h-4.666zM256.135-5.698h4.668v4.667h-4.668zM261.76-11.365h4.668v4.667h-4.668zM261.803-5.677h4.667v4.667h-4.667zM267.426-11.365h4.668v4.667h-4.668zM267.47-5.677h4.665v4.667h-4.666zM273.094-11.344h4.666v4.667h-4.666zM273.135-5.657h4.668V-.99h-4.668zM278.772-22.71h4.667v4.668h-4.668zM278.814-17.02h4.667v4.666h-4.666zM284.438-22.71h4.667v4.668h-4.667zM284.48-17.02h4.667v4.666h-4.667zM290.105-22.688h4.667v4.667h-4.667zM290.147-17h4.667v4.666h-4.667zM278.792-11.354h4.668v4.667h-4.668zM278.834-5.667h4.666V-1h-4.666zM284.458-11.354h4.668v4.667h-4.668zM284.5-5.667h4.666V-1H284.5zM290.125-11.334h4.666v4.667h-4.665zM290.167-5.646h4.668V-.98h-4.668zM295.825-22.698h4.666v4.667h-4.665zM295.866-17.01h4.668v4.666h-4.668zM301.49-22.678h4.67v4.667h-4.67zM301.534-16.99h4.666v4.667h-4.666zM307.157-22.678h4.668v4.667h-4.668zM307.2-16.99h4.666v4.667H307.2zM312.825-22.657h4.666v4.667h-4.665zM312.866-16.97h4.668v4.667h-4.668zM295.844-11.344h4.666v4.667h-4.666zM295.885-5.656h4.668V-.99h-4.668zM301.51-11.323h4.668v4.667h-4.668zM301.553-5.636h4.666V-.97h-4.667zM307.176-11.323h4.668v4.667h-4.668zM307.22-5.636h4.665V-.97h-4.666zM312.844-11.303h4.666v4.667h-4.666zM312.885-5.615h4.668v4.667h-4.668zM187.917-45.667h4.668V-41h-4.668zM187.96-39.98h4.665v4.668h-4.666zM193.584-45.646h4.666v4.667h-4.666zM193.625-39.958h4.668v4.667h-4.668zM199.25-45.646h4.666v4.667h-4.666zM199.292-39.958h4.668v4.667h-4.668zM204.917-45.625h4.668v4.667h-4.668zM204.96-39.938h4.665v4.667h-4.666zM187.938-34.312h4.667v4.667h-4.667zM187.98-28.625h4.667v4.667h-4.667zM193.605-34.292h4.667v4.667h-4.667zM193.647-28.604h4.667v4.667h-4.667zM199.27-34.292h4.668v4.667h-4.667zM199.313-28.604h4.667v4.667h-4.667zM204.938-34.27h4.667v4.666h-4.667zM204.98-28.583h4.667v4.667h-4.667zM210.636-45.635h4.667v4.667h-4.667zM210.678-39.948h4.667v4.667h-4.667zM216.303-45.615h4.667v4.667h-4.667zM216.345-39.927h4.667v4.667h-4.667zM221.97-45.615h4.665v4.667h-4.666zM222.01-39.927h4.668v4.667h-4.667zM227.636-45.594h4.667v4.667h-4.667zM227.678-39.907h4.667v4.667h-4.667zM210.657-34.28h4.668v4.666h-4.668zM210.7-28.593h4.666v4.667H210.7zM216.325-34.26h4.666v4.667h-4.665zM216.366-28.573h4.668v4.667h-4.668zM221.99-34.26h4.667v4.667h-4.666zM222.032-28.573h4.668v4.667h-4.668zM227.657-34.24h4.668v4.667h-4.668zM227.7-28.552h4.666v4.667H227.7zM233.355-45.604h4.667v4.667h-4.667zM233.397-39.917h4.667v4.667h-4.667zM239.022-45.583h4.667v4.667h-4.668zM239.064-39.896h4.667v4.667h-4.666zM244.688-45.583h4.667v4.667h-4.667zM244.73-39.896h4.667v4.667h-4.667zM250.355-45.563h4.667v4.667h-4.667zM250.397-39.875h4.667v4.667h-4.667zM233.375-34.25h4.666v4.667h-4.665zM233.417-28.562h4.668v4.667h-4.668zM239.042-34.23h4.668v4.668h-4.668zM239.084-28.542h4.666v4.667h-4.666zM244.708-34.23h4.668v4.668h-4.668zM244.75-28.542h4.666v4.667h-4.666zM250.375-34.208h4.666v4.667h-4.665zM250.417-28.52h4.668v4.666h-4.668zM256.075-45.573h4.666v4.667h-4.665zM256.116-39.885h4.668v4.667h-4.668zM261.74-45.552h4.67v4.667h-4.67zM261.784-39.865h4.666v4.667h-4.666zM267.407-45.552h4.668v4.667h-4.668zM267.45-39.865h4.666v4.667h-4.666zM273.075-45.532h4.666v4.667h-4.665zM273.116-39.844h4.668v4.667h-4.668zM256.094-34.218h4.666v4.667h-4.666zM256.135-28.53h4.668v4.666h-4.668zM261.76-34.198h4.668v4.667h-4.668zM261.803-28.51h4.667v4.667h-4.667zM267.426-34.198h4.668v4.667h-4.668zM267.47-28.51h4.665v4.667h-4.666zM273.094-34.177h4.666v4.667h-4.666zM273.135-28.49h4.668v4.667h-4.668zM278.772-45.542h4.667v4.667h-4.668zM278.814-39.854h4.667v4.667h-4.666zM284.438-45.542h4.667v4.667h-4.667zM284.48-39.854h4.667v4.667h-4.667zM290.105-45.52h4.667v4.666h-4.667zM290.147-39.834h4.667v4.667h-4.667zM278.792-34.188h4.668v4.667h-4.668zM278.834-28.5h4.666v4.667h-4.666zM284.458-34.188h4.668v4.667h-4.668zM284.5-28.5h4.666v4.667H284.5zM290.125-34.167h4.666v4.667h-4.665zM290.167-28.48h4.668v4.668h-4.668zM295.825-45.53h4.666v4.666h-4.665zM295.866-39.844h4.668v4.667h-4.668zM301.49-45.51h4.67v4.666h-4.67zM301.534-39.823h4.666v4.667h-4.666zM307.157-45.51h4.668v4.666h-4.668zM307.2-39.823h4.666v4.667H307.2zM312.825-45.49h4.666v4.667h-4.665zM312.866-39.803h4.668v4.667h-4.668zM295.844-34.177h4.666v4.667h-4.666zM295.885-28.49h4.668v4.668h-4.668zM301.51-34.156h4.668v4.667h-4.668zM301.553-28.47h4.666v4.668h-4.667zM307.176-34.156h4.668v4.667h-4.668zM307.22-28.47h4.665v4.668h-4.666zM312.844-34.136h4.666v4.667h-4.666zM312.885-28.448h4.668v4.667h-4.668z"/></svg>