<svg xmlns="http://www.w3.org/2000/svg" width="119.541" height="87.5" viewBox="0 0 119.541 87.5"><path fill="#231F20" d="M13.635 17.03L43.135 4.2l28-.333 30.166 8.833 15.17 23.333s-.003 22.167.165 22.667c.166.5-6.834 13-6.834 13L92.136 83.03l-34.333 3.834-29-2.333-23.833-10-2.335-24.166L3.8 31.697l9.835-14.666z"/><path fill="#414042" d="M1.302 69.72H5.97v4.665H1.3zM6.968 69.72h4.667v4.665H6.968zM7.01 75.406h4.667v4.666H7.01zM12.635 69.738h4.667v4.668h-4.667zM12.677 75.426h4.667v4.668h-4.667zM18.354 69.73h4.667v4.667h-4.666zM18.396 75.416h4.667v4.668h-4.667zM24.02 69.75h4.668v4.666H24.02zM24.063 75.438h4.667v4.666h-4.667zM29.687 69.75h4.667v4.666h-4.667zM29.73 75.438h4.666v4.666H29.73zM35.354 69.77h4.667v4.668h-4.666zM35.396 75.457h4.667v4.668h-4.667zM18.375 81.084h4.667v4.666h-4.667zM24.042 81.104h4.667v4.668H24.04zM29.708 81.104h4.667v4.668h-4.667zM35.375 81.125h4.667v4.666h-4.667zM41.073 69.76h4.667v4.668h-4.667zM41.115 75.447h4.667v4.668h-4.667zM46.74 69.78h4.667v4.667H46.74zM46.782 75.47h4.667v4.665H46.78zM52.406 69.78h4.667v4.667h-4.667zM52.448 75.47h4.667v4.665h-4.667zM58.073 69.8h4.667v4.67h-4.667zM58.115 75.488h4.667v4.668h-4.667zM41.093 81.115h4.667v4.666h-4.667zM46.76 81.135h4.667v4.668H46.76zM52.426 81.135h4.667v4.668h-4.667zM58.093 81.156h4.667v4.666h-4.667zM63.79 69.79h4.67v4.67h-4.67zM63.834 75.48H68.5v4.667h-4.666zM69.46 69.812h4.665v4.666H69.46zM69.5 75.5h4.668v4.666H69.5zM75.125 69.812h4.666v4.666h-4.665zM75.166 75.5h4.668v4.666h-4.668zM80.79 69.832h4.67V74.5h-4.67zM80.834 75.52H85.5v4.668h-4.666zM63.812 81.146h4.666v4.666h-4.666zM69.48 81.166h4.667v4.668H69.48zM75.146 81.166h4.668v4.668h-4.668zM80.812 81.188h4.666v4.666h-4.666zM86.49 69.822h4.665v4.667H86.49zM86.53 75.51h4.67v4.667h-4.67zM92.155 69.822h4.666v4.667h-4.665zM92.196 75.51h4.67v4.667h-4.67zM97.82 69.843h4.67v4.667h-4.67zM97.865 75.53h4.665v4.667h-4.665zM86.51 81.177h4.67v4.667h-4.67zM92.176 81.177h4.67v4.667h-4.67zM103.54 69.833h4.67V74.5h-4.67zM109.21 69.854h4.665v4.668h-4.666zM1.302 46.885H5.97v4.668H1.3zM1.344 52.572H6.01v4.668H1.345zM6.968 46.885h4.667v4.668H6.968zM7.01 52.572h4.667v4.668H7.01zM12.677 52.594h4.667v4.666h-4.667zM1.323 58.24H5.99v4.666H1.323zM1.365 63.928h4.667v4.666H1.365zM6.99 58.24h4.666v4.666H6.99zM7.03 63.928H11.7v4.666H7.03zM12.656 58.26h4.667v4.668h-4.667zM12.698 63.947h4.667v4.668h-4.667zM18.375 58.25h4.667v4.668h-4.667zM18.417 63.938h4.667v4.668h-4.667zM24.083 63.96h4.667v4.665h-4.667zM35.417 63.98h4.667v4.667h-4.667zM46.782 52.635h4.667v4.668H46.78zM52.406 46.947h4.667v4.668h-4.667zM52.448 52.635h4.667v4.668h-4.667zM58.073 46.97h4.667v4.665h-4.667zM58.115 52.656h4.667v4.666h-4.667zM41.093 58.28h4.667v4.67h-4.667zM41.135 63.97h4.667v4.667h-4.667zM46.76 58.303h4.667v4.666H46.76zM46.802 63.99h4.667v4.666H46.8zM52.426 58.303h4.667v4.666h-4.667zM52.468 63.99h4.667v4.666h-4.667zM58.093 58.322h4.667v4.668h-4.667zM58.135 64.01h4.667v4.668h-4.667zM63.79 46.96h4.67v4.665h-4.67zM63.834 52.646H68.5v4.666h-4.666z"/><path fill="#FF4D74" d="M63.834 46.98H68.5v4.667h-4.666z"/><path fill="#414042" d="M69.5 52.666h4.668v4.668H69.5z"/><path fill="#FF4D74" d="M69.5 46.98h4.666v4.667H69.5zM69.54 52.666h4.67v4.668h-4.67zM75.166 47h4.668v4.666h-4.668zM75.21 52.688h4.665v4.666H75.21z"/><path fill="#414042" d="M63.812 58.312h4.666v4.668h-4.666zM63.854 64h4.668v4.668h-4.668zM69.48 58.334h4.667V63H69.48zM69.52 64.02h4.667v4.667H69.52zM75.146 58.334h4.668V63h-4.668zM75.188 64.02h4.666v4.667h-4.666z"/><path fill="#FF4D74" d="M75.187 58.354h4.666v4.668h-4.666z"/><path fill="#414042" d="M80.854 64.04h4.668v4.67h-4.668z"/><path fill="#FF4D74" d="M80.865 46.99h4.665v4.666h-4.665zM80.905 52.677h4.67v4.667h-4.67zM86.53 46.99h4.666v4.666H86.53zM86.57 52.677h4.67v4.667h-4.67zM92.196 47.01h4.67v4.667h-4.67zM92.24 52.697h4.665v4.667H92.24zM80.885 58.344h4.67v4.667h-4.67zM80.93 64.03h4.665V68.7H80.93zM86.55 58.344h4.67v4.667h-4.67z"/><path fill="#414042" d="M92.22 64.03h4.665V68.7H92.22zM97.845 58.364h4.665v4.667h-4.665zM97.885 64.052h4.67v4.667h-4.67z"/><path fill="#FF4D74" d="M97.916 47h4.668v4.667h-4.668z"/><path fill="#414042" d="M103.584 52.688h4.666v4.668h-4.666zM109.21 47.02h4.665v4.667h-4.666zM109.25 52.708h4.668v4.667h-4.668zM114.875 47.02h4.666v4.667h-4.665zM114.916 52.708h4.668v4.667h-4.668zM103.562 58.354h4.666v4.668h-4.666zM103.604 64.042h4.668v4.667h-4.668zM109.23 58.375h4.667v4.667h-4.668zM109.27 64.062h4.667v4.666h-4.666zM114.896 58.375h4.668v4.667h-4.668zM1.344 29.74H6.01v4.666H1.345zM6.968 24.052h4.667v4.667H6.968zM7.01 29.74h4.667v4.666H7.01zM12.635 24.072h4.667v4.667h-4.667zM12.677 29.76h4.667v4.667h-4.667zM1.323 35.406H5.99v4.667H1.323zM1.365 41.094h4.667v4.667H1.365zM6.99 35.406h4.666v4.667H6.99zM7.03 41.094H11.7v4.667H7.03zM18.354 24.062h4.667v4.667h-4.666zM24.02 24.083h4.668v4.667H24.02zM29.687 24.083h4.667v4.667h-4.667zM29.73 29.77h4.666v4.668H29.73zM35.354 24.104h4.667v4.667h-4.666zM41.073 24.094h4.667v4.667h-4.667zM46.74 24.114h4.667v4.667H46.74zM46.782 29.802h4.667v4.667H46.78zM52.406 24.114h4.667v4.667h-4.667zM52.448 29.802h4.667v4.667h-4.667zM58.073 24.135h4.667v4.667h-4.667zM58.115 29.822h4.667v4.667h-4.667zM52.426 35.47h4.667v4.666h-4.667zM52.468 41.156h4.667v4.667h-4.667zM58.093 35.49h4.667v4.666h-4.667zM58.135 41.177h4.667v4.667h-4.667zM63.79 24.125h4.67v4.667h-4.67zM63.834 29.812H68.5v4.667h-4.666zM69.46 24.146h4.665v4.667H69.46zM69.5 29.833h4.668V34.5H69.5zM75.125 24.146h4.666v4.667h-4.665z"/><path fill="#FF4D74" d="M69.54 29.833h4.67V34.5h-4.67z"/><path fill="#414042" d="M80.79 24.166h4.67v4.667h-4.67z"/><path fill="#FF4D74" d="M75.21 29.854h4.665v4.667H75.21z"/><path fill="#414042" d="M63.812 35.48h4.666v4.666h-4.666zM63.854 41.167h4.668v4.667h-4.668z"/><path fill="#FF4D74" d="M63.854 35.5h4.668v4.667h-4.668zM63.896 41.188h4.666v4.667h-4.666zM69.52 35.5h4.67v4.667h-4.67zM69.563 41.188h4.666v4.667h-4.667zM75.187 35.52h4.666v4.668h-4.666zM75.23 41.208h4.667v4.667H75.23z"/><path fill="#414042" d="M86.49 24.156h4.665v4.667H86.49zM86.53 29.843h4.67v4.667h-4.67zM92.155 24.156h4.666v4.667h-4.665z"/><path fill="#FF4D74" d="M86.57 29.843h4.67v4.667h-4.67z"/><path fill="#414042" d="M97.82 24.176h4.67v4.667h-4.67z"/><path fill="#FF4D74" d="M92.24 29.864h4.665v4.667H92.24zM80.885 35.51h4.67v4.667h-4.67zM80.93 41.198h4.665v4.667H80.93zM86.55 35.51h4.67v4.667h-4.67zM86.595 41.198h4.665v4.667h-4.665zM92.22 35.53h4.665V40.2H92.22zM92.26 41.218h4.67v4.667h-4.67z"/><path fill="#414042" d="M103.54 24.167h4.67v4.667h-4.67zM103.584 29.854h4.666v4.667h-4.666zM109.21 24.187h4.665v4.667h-4.666zM109.25 29.875h4.668v4.667h-4.668zM114.916 29.875h4.668v4.667h-4.668z"/><path fill="#FF4D74" d="M97.937 35.52h4.666v4.668h-4.666zM97.98 41.208h4.667v4.667H97.98z"/><path fill="#414042" d="M109.23 35.542h4.667v4.667h-4.668zM109.27 41.23h4.667v4.666h-4.666zM114.896 35.542h4.668v4.667h-4.668zM114.938 41.23h4.666v4.666h-4.666zM7.03 18.26H11.7v4.668H7.03zM12.656 12.594h4.667v4.667h-4.667zM12.698 18.28h4.667v4.668h-4.667zM24.063 6.938h4.667v4.667h-4.667zM29.73 6.938h4.666v4.667H29.73zM35.396 6.958h4.667v4.667h-4.667zM18.375 12.584h4.667v4.667h-4.667zM18.417 18.27h4.667v4.668h-4.667zM24.042 12.604h4.667v4.667H24.04zM24.083 18.292h4.667v4.667h-4.667zM29.708 12.604h4.667v4.667h-4.667zM29.75 18.292h4.667v4.667H29.75zM35.375 12.625h4.667v4.667h-4.667zM35.417 18.312h4.667v4.667h-4.667zM41.073 1.26h4.667V5.93h-4.667zM41.115 6.948h4.667v4.667h-4.667zM46.74 1.28h4.667V5.95H46.74zM46.782 6.97h4.667v4.666H46.78zM52.406 1.28h4.667V5.95h-4.667zM52.448 6.97h4.667v4.666h-4.667zM58.073 1.302h4.667V5.97h-4.667zM58.115 6.99h4.667v4.666h-4.667zM41.093 12.615h4.667v4.667h-4.667zM41.135 18.303h4.667v4.667h-4.667zM46.76 12.636h4.667v4.667H46.76zM46.802 18.323h4.667v4.667H46.8zM52.426 12.636h4.667v4.667h-4.667zM52.468 18.323h4.667v4.667h-4.667zM58.093 12.656h4.667v4.667h-4.667zM58.135 18.344h4.667v4.667h-4.667zM63.79 1.292h4.67V5.96h-4.67zM63.834 6.98H68.5v4.666h-4.666zM69.46 1.312h4.665V5.98H69.46zM69.5 7h4.668v4.667H69.5zM75.125 1.312h4.666V5.98h-4.665zM75.166 7h4.668v4.667h-4.668zM80.834 7.02H85.5v4.668h-4.666zM63.812 12.646h4.666v4.667h-4.666zM63.854 18.334h4.668V23h-4.668zM69.48 12.667h4.667v4.667H69.48zM69.52 18.354h4.667v4.667H69.52zM75.146 12.667h4.668v4.667h-4.668zM75.188 18.354h4.666v4.667h-4.666zM80.812 12.688h4.666v4.667h-4.666zM80.854 18.375h4.668v4.667h-4.668zM86.53 7.01h4.67v4.667h-4.67zM92.196 7.01h4.67v4.667h-4.67zM86.51 12.677h4.67v4.667h-4.67zM86.554 18.365h4.666v4.667h-4.666zM92.176 12.677h4.67v4.667h-4.67zM92.22 18.365h4.665v4.667H92.22zM97.845 12.698h4.665v4.667h-4.665zM97.885 18.385h4.67v4.667h-4.67zM103.604 18.375h4.668v4.667h-4.668z"/><path fill="#FF4D74" d="M18.26 46.906h4.667v4.666H18.26zM23.98 46.896h4.666v4.666H23.98zM24.02 52.584h4.668v4.666H24.02zM29.646 46.916h4.667v4.668h-4.667zM29.688 52.604h4.667v4.668h-4.667zM35.312 46.916h4.667v4.668H35.31zM35.354 52.604h4.667v4.668h-4.666zM40.98 46.938h4.666v4.666H40.98zM41.02 52.625h4.668v4.666H41.02zM29.667 58.27h4.667v4.667h-4.667zM35.333 58.27H40v4.667h-4.667zM35.375 63.96h4.667v4.665h-4.667zM41 58.29h4.667v4.67H41zM46.698 46.928h4.667v4.666h-4.667zM46.74 52.615h4.667v4.666H46.74zM52.365 46.947h4.667v4.668h-4.667zM18.28 35.427h4.668v4.667H18.28zM18.323 41.114h4.667v4.667h-4.667zM24.02 29.75h4.668v4.667H24.02zM29.688 29.77h4.667v4.668h-4.667zM41.02 29.79h4.668v4.668H41.02zM24 35.417h4.667v4.667H24zM24.042 41.104h4.667v4.667H24.04zM29.667 35.438h4.667v4.667h-4.667zM29.708 41.125h4.667v4.667h-4.667zM35.333 35.438H40v4.667h-4.667zM35.375 41.125h4.667v4.667h-4.667zM41 35.458h4.667v4.667H41zM41.042 41.146h4.667v4.667H41.04zM46.74 29.78h4.667v4.668H46.74zM46.718 35.448h4.667v4.667h-4.667zM46.76 41.136h4.667v4.667H46.76zM52.385 35.47h4.667v4.666h-4.667zM52.427 41.156h4.667v4.667h-4.667z"/><path fill="#414042" d="M18.354 29.73h4.666v4.665h-4.666zM35.354 29.812h4.666v4.666h-4.666zM12.646 35.48h4.666v4.665h-4.666zM12.646 41.166h4.666v4.666h-4.666zM12.646 46.916h4.666v4.666h-4.666zM18.334 52.54H23v4.667h-4.666zM24.084 58.29h4.666v4.667h-4.666zM29.77 64.04h4.667v4.667H29.77zM80.896 29.854h4.666v4.666h-4.666zM97.834 29.854h4.666v4.666h-4.666zM103.646 35.54h4.666v4.667h-4.666zM103.646 41.29h4.666v4.667h-4.666zM103.52 47.04h4.667v4.667h-4.666zM97.834 52.73h4.666v4.665h-4.666zM92.334 58.354H97v4.666h-4.666zM86.52 64.04h4.667v4.667H86.52z"/></svg>