<?xml version="1.0" encoding="utf-8"?>
<!-- Generator: Adobe Illustrator 16.0.0, SVG Export Plug-In . SVG Version: 6.00 Build 0)  -->
<!DOCTYPE svg PUBLIC "-//W3C//DTD SVG 1.1//EN" "http://www.w3.org/Graphics/SVG/1.1/DTD/svg11.dtd">
<svg version="1.1" id="Layer_1" xmlns="http://www.w3.org/2000/svg" xmlns:xlink="http://www.w3.org/1999/xlink" x="0px" y="0px"
	 width="145.333px" height="327.333px" viewBox="0 0 145.333 327.333" enable-background="new 0 0 145.333 327.333"
	 xml:space="preserve">
<path fill="#F1F2F2" d="M73.41,0.845c-38.14,0-69.802,21.513-69.802,59.653s27.207,43.317,65.347,43.317
	c38.141,0,72.771-5.177,72.771-43.317S111.55,0.845,73.41,0.845z M70.566,91.974c-27.518,0-47.146-3.736-47.146-31.252
	c0-27.517,22.844-43.038,50.36-43.038c27.519,0,49.29,15.521,49.29,43.038C123.07,88.238,98.083,91.974,70.566,91.974z"/>
<g>
	<path fill="#F1F2F2" d="M141.973,144.163c0,35.68-31.029,181.436-69.307,181.436c-38.276,0-69.307-145.756-69.307-181.436
		s29.968-34.406,68.244-34.406C109.881,109.756,141.973,108.483,141.973,144.163z"/>
</g>
<path fill-rule="evenodd" clip-rule="evenodd" fill="#FF4D74" d="M53.82,165.923c-4.549-2.727-9.052-5.414-13.535-8.132
	c-0.531-0.321-1.017-0.768-1.422-1.243c-1.907-2.241-2.396-4.796-1.323-7.529c1.072-2.734,3.168-4.274,6.094-4.625
	c1.883-0.226,3.577,0.322,5.135,1.397c0.332-0.489,0.623-0.987,0.979-1.435c2.4-3.031,6.694-3.678,9.895-1.505
	c3.158,2.143,4.167,6.416,2.218,9.719c-2.593,4.395-5.25,8.751-7.879,13.124C53.935,165.768,53.882,165.834,53.82,165.923z"/>
</svg>
