<?xml version="1.0" encoding="utf-8"?>
<!-- Generator: Adobe Illustrator 16.0.0, SVG Export Plug-In . SVG Version: 6.00 Build 0)  -->
<!DOCTYPE svg PUBLIC "-//W3C//DTD SVG 1.1//EN" "http://www.w3.org/Graphics/SVG/1.1/DTD/svg11.dtd">
<svg version="1.1" id="Layer_1" xmlns="http://www.w3.org/2000/svg" xmlns:xlink="http://www.w3.org/1999/xlink" x="0px" y="0px"
	 width="145.333px" height="327.333px" viewBox="0 0 145.333 327.333" enable-background="new 0 0 145.333 327.333"
	 xml:space="preserve">
<path fill="#F1F2F2" d="M73.411,0.845c-38.141,0-69.803,21.513-69.803,59.653s27.207,43.317,65.347,43.317
	c38.141,0,72.771-5.177,72.771-43.317S111.549,0.845,73.411,0.845z M70.566,91.974c-27.518,0-47.146-3.736-47.146-31.252
	c0-27.517,22.844-43.038,50.36-43.038c27.52,0,49.29,15.521,49.29,43.038C123.07,88.238,98.083,91.974,70.566,91.974z"/>
<g>
	<path fill="#F1F2F2" d="M141.973,144.163c0,35.679-31.029,181.436-69.307,181.436c-38.276,0-69.307-145.757-69.307-181.436
		c0-35.68,29.968-34.406,68.244-34.406C109.881,109.756,141.973,108.483,141.973,144.163z"/>
</g>
<path fill="#FF4D74" d="M96.979,166.384c-2.855-4.469-5.688-8.882-8.487-13.315c-0.332-0.524-0.567-1.141-0.719-1.747
	c-0.706-2.856-0.005-5.361,2.175-7.329c2.179-1.969,4.742-2.412,7.517-1.421c1.786,0.637,3.058,1.883,3.974,3.541
	c0.516-0.29,0.998-0.605,1.516-0.848c3.5-1.642,7.632-0.307,9.527,3.066c1.871,3.327,0.868,7.601-2.35,9.688
	c-4.281,2.777-8.603,5.491-12.906,8.232C97.151,166.298,97.073,166.333,96.979,166.384z"/>
<rect x="187.917" y="22.833" fill="#231F20" width="4.668" height="4.667"/>
<rect x="187.959" y="28.521" fill="#231F20" width="4.666" height="4.667"/>
<rect x="193.584" y="22.854" fill="#231F20" width="4.666" height="4.667"/>
<rect x="193.625" y="28.541" fill="#231F20" width="4.668" height="4.667"/>
<rect x="199.25" y="22.854" fill="#231F20" width="4.666" height="4.667"/>
<rect x="199.292" y="28.541" fill="#231F20" width="4.668" height="4.667"/>
<rect x="204.917" y="22.874" fill="#231F20" width="4.668" height="4.667"/>
<rect x="204.959" y="28.562" fill="#231F20" width="4.666" height="4.667"/>
<rect x="187.938" y="34.188" fill="#231F20" width="4.667" height="4.667"/>
<rect x="187.98" y="39.875" fill="#231F20" width="4.667" height="4.667"/>
<rect x="193.605" y="34.208" fill="#231F20" width="4.667" height="4.667"/>
<rect x="193.647" y="39.896" fill="#231F20" width="4.667" height="4.667"/>
<rect x="199.271" y="34.208" fill="#231F20" width="4.667" height="4.667"/>
<rect x="199.313" y="39.896" fill="#231F20" width="4.667" height="4.667"/>
<rect x="204.938" y="34.229" fill="#231F20" width="4.667" height="4.667"/>
<rect x="204.98" y="39.916" fill="#231F20" width="4.667" height="4.667"/>
<rect x="210.636" y="22.864" fill="#231F20" width="4.667" height="4.667"/>
<rect x="210.678" y="28.552" fill="#231F20" width="4.667" height="4.667"/>
<rect x="216.303" y="22.885" fill="#231F20" width="4.667" height="4.667"/>
<rect x="216.345" y="28.572" fill="#231F20" width="4.667" height="4.667"/>
<rect x="221.969" y="22.885" fill="#231F20" width="4.666" height="4.667"/>
<rect x="222.011" y="28.572" fill="#231F20" width="4.667" height="4.667"/>
<rect x="227.636" y="22.905" fill="#231F20" width="4.667" height="4.667"/>
<rect x="227.678" y="28.593" fill="#231F20" width="4.667" height="4.667"/>
<rect x="210.657" y="34.219" fill="#231F20" width="4.668" height="4.667"/>
<rect x="210.7" y="39.906" fill="#231F20" width="4.666" height="4.667"/>
<rect x="216.325" y="34.239" fill="#231F20" width="4.666" height="4.667"/>
<rect x="216.366" y="39.927" fill="#231F20" width="4.668" height="4.667"/>
<rect x="221.991" y="34.239" fill="#231F20" width="4.666" height="4.667"/>
<rect x="222.032" y="39.927" fill="#231F20" width="4.668" height="4.667"/>
<rect x="227.657" y="34.26" fill="#231F20" width="4.668" height="4.667"/>
<rect x="227.7" y="39.947" fill="#231F20" width="4.666" height="4.667"/>
<rect x="233.355" y="22.896" fill="#231F20" width="4.667" height="4.667"/>
<rect x="233.397" y="28.583" fill="#231F20" width="4.667" height="4.667"/>
<rect x="239.022" y="22.916" fill="#231F20" width="4.667" height="4.667"/>
<rect x="239.064" y="28.604" fill="#231F20" width="4.667" height="4.667"/>
<rect x="244.688" y="22.916" fill="#231F20" width="4.667" height="4.667"/>
<rect x="244.73" y="28.604" fill="#231F20" width="4.667" height="4.667"/>
<rect x="250.355" y="22.937" fill="#231F20" width="4.667" height="4.667"/>
<rect x="250.397" y="28.624" fill="#231F20" width="4.667" height="4.667"/>
<rect x="233.375" y="34.25" fill="#231F20" width="4.666" height="4.667"/>
<rect x="233.417" y="39.938" fill="#231F20" width="4.668" height="4.667"/>
<rect x="239.042" y="34.271" fill="#231F20" width="4.668" height="4.667"/>
<rect x="239.084" y="39.958" fill="#231F20" width="4.666" height="4.667"/>
<rect x="244.708" y="34.271" fill="#231F20" width="4.668" height="4.667"/>
<rect x="244.75" y="39.958" fill="#231F20" width="4.666" height="4.667"/>
<rect x="250.375" y="34.291" fill="#231F20" width="4.666" height="4.667"/>
<rect x="250.417" y="39.979" fill="#231F20" width="4.668" height="4.667"/>
<rect x="256.075" y="22.927" fill="#231F20" width="4.666" height="4.667"/>
<rect x="256.116" y="28.614" fill="#231F20" width="4.668" height="4.667"/>
<rect x="261.741" y="22.947" fill="#231F20" width="4.668" height="4.667"/>
<rect x="261.784" y="28.635" fill="#231F20" width="4.666" height="4.667"/>
<rect x="267.407" y="22.947" fill="#231F20" width="4.668" height="4.667"/>
<rect x="267.45" y="28.635" fill="#231F20" width="4.666" height="4.667"/>
<rect x="273.075" y="22.968" fill="#231F20" width="4.666" height="4.667"/>
<rect x="273.116" y="28.655" fill="#231F20" width="4.668" height="4.667"/>
<rect x="256.094" y="34.281" fill="#231F20" width="4.666" height="4.667"/>
<rect x="256.135" y="39.969" fill="#231F20" width="4.668" height="4.667"/>
<rect x="261.76" y="34.302" fill="#231F20" width="4.668" height="4.667"/>
<rect x="261.803" y="39.989" fill="#231F20" width="4.667" height="4.667"/>
<rect x="267.426" y="34.302" fill="#231F20" width="4.668" height="4.667"/>
<rect x="267.469" y="39.989" fill="#231F20" width="4.666" height="4.667"/>
<rect x="273.094" y="34.322" fill="#231F20" width="4.666" height="4.667"/>
<rect x="273.135" y="40.01" fill="#231F20" width="4.668" height="4.667"/>
<rect x="278.772" y="22.958" fill="#231F20" width="4.667" height="4.667"/>
<rect x="278.814" y="28.645" fill="#231F20" width="4.667" height="4.667"/>
<rect x="284.438" y="22.958" fill="#231F20" width="4.667" height="4.667"/>
<rect x="284.48" y="28.645" fill="#231F20" width="4.667" height="4.667"/>
<rect x="290.105" y="22.978" fill="#231F20" width="4.667" height="4.667"/>
<rect x="290.147" y="28.666" fill="#231F20" width="4.667" height="4.667"/>
<rect x="278.792" y="34.312" fill="#231F20" width="4.668" height="4.667"/>
<rect x="278.834" y="40" fill="#231F20" width="4.666" height="4.667"/>
<rect x="284.458" y="34.312" fill="#231F20" width="4.668" height="4.667"/>
<rect x="284.5" y="40" fill="#231F20" width="4.666" height="4.667"/>
<rect x="290.125" y="34.333" fill="#231F20" width="4.666" height="4.667"/>
<rect x="290.167" y="40.02" fill="#231F20" width="4.668" height="4.667"/>
<rect x="295.825" y="22.968" fill="#231F20" width="4.666" height="4.667"/>
<rect x="295.866" y="28.656" fill="#231F20" width="4.668" height="4.667"/>
<rect x="301.491" y="22.989" fill="#231F20" width="4.668" height="4.667"/>
<rect x="301.534" y="28.676" fill="#231F20" width="4.666" height="4.667"/>
<rect x="307.157" y="22.989" fill="#231F20" width="4.668" height="4.667"/>
<rect x="307.2" y="28.676" fill="#231F20" width="4.666" height="4.667"/>
<rect x="312.825" y="23.009" fill="#231F20" width="4.666" height="4.667"/>
<rect x="312.866" y="28.697" fill="#231F20" width="4.668" height="4.667"/>
<rect x="295.844" y="34.323" fill="#231F20" width="4.666" height="4.667"/>
<rect x="295.885" y="40.01" fill="#231F20" width="4.668" height="4.667"/>
<rect x="301.51" y="34.343" fill="#231F20" width="4.668" height="4.667"/>
<rect x="301.553" y="40.031" fill="#231F20" width="4.666" height="4.667"/>
<rect x="307.176" y="34.343" fill="#231F20" width="4.668" height="4.667"/>
<rect x="307.219" y="40.031" fill="#231F20" width="4.666" height="4.667"/>
<rect x="312.844" y="34.364" fill="#231F20" width="4.666" height="4.667"/>
<rect x="312.885" y="40.051" fill="#231F20" width="4.668" height="4.667"/>
<rect x="187.917" fill="#231F20" width="4.668" height="4.667"/>
<rect x="187.959" y="5.688" fill="#231F20" width="4.666" height="4.667"/>
<rect x="193.584" y="0.021" fill="#231F20" width="4.666" height="4.667"/>
<rect x="193.625" y="5.708" fill="#231F20" width="4.668" height="4.667"/>
<rect x="199.25" y="0.021" fill="#231F20" width="4.666" height="4.667"/>
<rect x="199.292" y="5.708" fill="#231F20" width="4.668" height="4.667"/>
<rect x="204.917" y="0.041" fill="#231F20" width="4.668" height="4.667"/>
<rect x="204.959" y="5.729" fill="#231F20" width="4.666" height="4.667"/>
<rect x="187.938" y="11.354" fill="#231F20" width="4.667" height="4.667"/>
<rect x="187.98" y="17.042" fill="#231F20" width="4.667" height="4.667"/>
<rect x="193.605" y="11.375" fill="#231F20" width="4.667" height="4.667"/>
<rect x="193.647" y="17.062" fill="#231F20" width="4.667" height="4.667"/>
<rect x="199.271" y="11.375" fill="#231F20" width="4.667" height="4.667"/>
<rect x="199.313" y="17.062" fill="#231F20" width="4.667" height="4.667"/>
<rect x="204.938" y="11.396" fill="#231F20" width="4.667" height="4.667"/>
<rect x="204.98" y="17.083" fill="#231F20" width="4.667" height="4.667"/>
<rect x="210.636" y="0.031" fill="#231F20" width="4.667" height="4.667"/>
<rect x="210.678" y="5.719" fill="#231F20" width="4.667" height="4.667"/>
<rect x="216.303" y="0.052" fill="#231F20" width="4.667" height="4.667"/>
<rect x="216.345" y="5.739" fill="#231F20" width="4.667" height="4.667"/>
<rect x="221.969" y="0.052" fill="#231F20" width="4.666" height="4.667"/>
<rect x="222.011" y="5.739" fill="#231F20" width="4.667" height="4.667"/>
<rect x="227.636" y="0.072" fill="#231F20" width="4.667" height="4.667"/>
<rect x="227.678" y="5.76" fill="#231F20" width="4.667" height="4.667"/>
<rect x="210.657" y="11.386" fill="#231F20" width="4.668" height="4.667"/>
<rect x="210.7" y="17.073" fill="#231F20" width="4.666" height="4.667"/>
<rect x="216.325" y="11.406" fill="#231F20" width="4.666" height="4.667"/>
<rect x="216.366" y="17.094" fill="#231F20" width="4.668" height="4.667"/>
<rect x="221.991" y="11.406" fill="#231F20" width="4.666" height="4.667"/>
<rect x="222.032" y="17.094" fill="#231F20" width="4.668" height="4.667"/>
<rect x="227.657" y="11.427" fill="#231F20" width="4.668" height="4.667"/>
<rect x="227.7" y="17.114" fill="#231F20" width="4.666" height="4.667"/>
<rect x="233.355" y="0.062" fill="#231F20" width="4.667" height="4.667"/>
<rect x="233.397" y="5.75" fill="#231F20" width="4.667" height="4.667"/>
<rect x="239.022" y="0.083" fill="#231F20" width="4.667" height="4.667"/>
<rect x="239.064" y="5.771" fill="#231F20" width="4.667" height="4.667"/>
<rect x="244.688" y="0.083" fill="#231F20" width="4.667" height="4.667"/>
<rect x="244.73" y="5.771" fill="#231F20" width="4.667" height="4.667"/>
<rect x="250.355" y="0.104" fill="#231F20" width="4.667" height="4.667"/>
<rect x="250.397" y="5.791" fill="#231F20" width="4.667" height="4.667"/>
<rect x="233.375" y="11.417" fill="#231F20" width="4.666" height="4.667"/>
<rect x="233.417" y="17.104" fill="#231F20" width="4.668" height="4.667"/>
<rect x="239.042" y="11.438" fill="#231F20" width="4.668" height="4.667"/>
<rect x="239.084" y="17.125" fill="#231F20" width="4.666" height="4.667"/>
<rect x="244.708" y="11.438" fill="#231F20" width="4.668" height="4.667"/>
<rect x="244.75" y="17.125" fill="#231F20" width="4.666" height="4.667"/>
<rect x="250.375" y="11.458" fill="#231F20" width="4.666" height="4.667"/>
<rect x="250.417" y="17.146" fill="#231F20" width="4.668" height="4.667"/>
<rect x="256.075" y="0.094" fill="#231F20" width="4.666" height="4.667"/>
<rect x="256.116" y="5.781" fill="#231F20" width="4.668" height="4.667"/>
<rect x="261.741" y="0.114" fill="#231F20" width="4.668" height="4.667"/>
<rect x="261.784" y="5.802" fill="#231F20" width="4.666" height="4.667"/>
<rect x="267.407" y="0.114" fill="#231F20" width="4.668" height="4.667"/>
<rect x="267.45" y="5.802" fill="#231F20" width="4.666" height="4.667"/>
<rect x="273.075" y="0.135" fill="#231F20" width="4.666" height="4.667"/>
<rect x="273.116" y="5.822" fill="#231F20" width="4.668" height="4.667"/>
<rect x="256.094" y="11.448" fill="#231F20" width="4.666" height="4.667"/>
<rect x="256.135" y="17.136" fill="#231F20" width="4.668" height="4.667"/>
<rect x="261.76" y="11.469" fill="#231F20" width="4.668" height="4.667"/>
<rect x="261.803" y="17.156" fill="#231F20" width="4.667" height="4.667"/>
<rect x="267.426" y="11.469" fill="#231F20" width="4.668" height="4.667"/>
<rect x="267.469" y="17.156" fill="#231F20" width="4.666" height="4.667"/>
<rect x="273.094" y="11.489" fill="#231F20" width="4.666" height="4.667"/>
<rect x="273.135" y="17.177" fill="#231F20" width="4.668" height="4.667"/>
<rect x="278.772" y="0.125" fill="#231F20" width="4.667" height="4.667"/>
<rect x="278.814" y="5.812" fill="#231F20" width="4.667" height="4.667"/>
<rect x="284.438" y="0.125" fill="#231F20" width="4.667" height="4.667"/>
<rect x="284.48" y="5.812" fill="#231F20" width="4.667" height="4.667"/>
<rect x="290.105" y="0.145" fill="#231F20" width="4.667" height="4.667"/>
<rect x="290.147" y="5.833" fill="#231F20" width="4.667" height="4.667"/>
<rect x="278.792" y="11.479" fill="#231F20" width="4.668" height="4.667"/>
<rect x="278.834" y="17.167" fill="#231F20" width="4.666" height="4.667"/>
<rect x="284.458" y="11.479" fill="#231F20" width="4.668" height="4.667"/>
<rect x="284.5" y="17.167" fill="#231F20" width="4.666" height="4.667"/>
<rect x="290.125" y="11.5" fill="#231F20" width="4.666" height="4.667"/>
<rect x="290.167" y="17.187" fill="#231F20" width="4.668" height="4.667"/>
<rect x="295.825" y="0.135" fill="#231F20" width="4.666" height="4.667"/>
<rect x="295.866" y="5.823" fill="#231F20" width="4.668" height="4.667"/>
<rect x="301.491" y="0.156" fill="#231F20" width="4.668" height="4.667"/>
<rect x="301.534" y="5.843" fill="#231F20" width="4.666" height="4.667"/>
<rect x="307.157" y="0.156" fill="#231F20" width="4.668" height="4.667"/>
<rect x="307.2" y="5.843" fill="#231F20" width="4.666" height="4.667"/>
<rect x="312.825" y="0.176" fill="#231F20" width="4.666" height="4.667"/>
<rect x="312.866" y="5.864" fill="#231F20" width="4.668" height="4.667"/>
<rect x="295.844" y="11.49" fill="#231F20" width="4.666" height="4.667"/>
<rect x="295.885" y="17.177" fill="#231F20" width="4.668" height="4.667"/>
<rect x="301.51" y="11.51" fill="#231F20" width="4.668" height="4.667"/>
<rect x="301.553" y="17.198" fill="#231F20" width="4.666" height="4.667"/>
<rect x="307.176" y="11.51" fill="#231F20" width="4.668" height="4.667"/>
<rect x="307.219" y="17.198" fill="#231F20" width="4.666" height="4.667"/>
<rect x="312.844" y="11.531" fill="#231F20" width="4.666" height="4.667"/>
<rect x="312.885" y="17.218" fill="#231F20" width="4.668" height="4.667"/>
<rect x="187.917" y="-22.833" fill="#231F20" width="4.668" height="4.667"/>
<rect x="187.959" y="-17.146" fill="#231F20" width="4.666" height="4.667"/>
<rect x="193.584" y="-22.813" fill="#231F20" width="4.666" height="4.667"/>
<rect x="193.625" y="-17.125" fill="#231F20" width="4.668" height="4.667"/>
<rect x="199.25" y="-22.813" fill="#231F20" width="4.666" height="4.667"/>
<rect x="199.292" y="-17.125" fill="#231F20" width="4.668" height="4.667"/>
<rect x="204.917" y="-22.792" fill="#231F20" width="4.668" height="4.667"/>
<rect x="204.959" y="-17.105" fill="#231F20" width="4.666" height="4.667"/>
<rect x="187.938" y="-11.479" fill="#231F20" width="4.667" height="4.667"/>
<rect x="187.98" y="-5.792" fill="#231F20" width="4.667" height="4.667"/>
<rect x="193.605" y="-11.458" fill="#231F20" width="4.667" height="4.667"/>
<rect x="193.647" y="-5.771" fill="#231F20" width="4.667" height="4.667"/>
<rect x="199.271" y="-11.458" fill="#231F20" width="4.667" height="4.667"/>
<rect x="199.313" y="-5.771" fill="#231F20" width="4.667" height="4.667"/>
<rect x="204.938" y="-11.438" fill="#231F20" width="4.667" height="4.667"/>
<rect x="204.98" y="-5.75" fill="#231F20" width="4.667" height="4.667"/>
<rect x="210.636" y="-22.802" fill="#231F20" width="4.667" height="4.667"/>
<rect x="210.678" y="-17.115" fill="#231F20" width="4.667" height="4.667"/>
<rect x="216.303" y="-22.782" fill="#231F20" width="4.667" height="4.667"/>
<rect x="216.345" y="-17.094" fill="#231F20" width="4.667" height="4.667"/>
<rect x="221.969" y="-22.782" fill="#231F20" width="4.666" height="4.667"/>
<rect x="222.011" y="-17.094" fill="#231F20" width="4.667" height="4.667"/>
<rect x="227.636" y="-22.761" fill="#231F20" width="4.667" height="4.667"/>
<rect x="227.678" y="-17.074" fill="#231F20" width="4.667" height="4.667"/>
<rect x="210.657" y="-11.448" fill="#231F20" width="4.668" height="4.667"/>
<rect x="210.7" y="-5.76" fill="#231F20" width="4.666" height="4.667"/>
<rect x="216.325" y="-11.427" fill="#231F20" width="4.666" height="4.667"/>
<rect x="216.366" y="-5.74" fill="#231F20" width="4.668" height="4.667"/>
<rect x="221.991" y="-11.427" fill="#231F20" width="4.666" height="4.667"/>
<rect x="222.032" y="-5.74" fill="#231F20" width="4.668" height="4.667"/>
<rect x="227.657" y="-11.407" fill="#231F20" width="4.668" height="4.667"/>
<rect x="227.7" y="-5.719" fill="#231F20" width="4.666" height="4.667"/>
<rect x="233.355" y="-22.771" fill="#231F20" width="4.667" height="4.667"/>
<rect x="233.397" y="-17.083" fill="#231F20" width="4.667" height="4.667"/>
<rect x="239.022" y="-22.75" fill="#231F20" width="4.667" height="4.667"/>
<rect x="239.064" y="-17.063" fill="#231F20" width="4.667" height="4.667"/>
<rect x="244.688" y="-22.75" fill="#231F20" width="4.667" height="4.667"/>
<rect x="244.73" y="-17.063" fill="#231F20" width="4.667" height="4.667"/>
<rect x="250.355" y="-22.73" fill="#231F20" width="4.667" height="4.667"/>
<rect x="250.397" y="-17.042" fill="#231F20" width="4.667" height="4.667"/>
<rect x="233.375" y="-11.417" fill="#231F20" width="4.666" height="4.667"/>
<rect x="233.417" y="-5.729" fill="#231F20" width="4.668" height="4.667"/>
<rect x="239.042" y="-11.396" fill="#231F20" width="4.668" height="4.667"/>
<rect x="239.084" y="-5.708" fill="#231F20" width="4.666" height="4.667"/>
<rect x="244.708" y="-11.396" fill="#231F20" width="4.668" height="4.667"/>
<rect x="244.75" y="-5.708" fill="#231F20" width="4.666" height="4.667"/>
<rect x="250.375" y="-11.375" fill="#231F20" width="4.666" height="4.667"/>
<rect x="250.417" y="-5.688" fill="#231F20" width="4.668" height="4.667"/>
<rect x="256.075" y="-22.74" fill="#231F20" width="4.666" height="4.667"/>
<rect x="256.116" y="-17.052" fill="#231F20" width="4.668" height="4.667"/>
<rect x="261.741" y="-22.719" fill="#231F20" width="4.668" height="4.667"/>
<rect x="261.784" y="-17.032" fill="#231F20" width="4.666" height="4.667"/>
<rect x="267.407" y="-22.719" fill="#231F20" width="4.668" height="4.667"/>
<rect x="267.45" y="-17.032" fill="#231F20" width="4.666" height="4.667"/>
<rect x="273.075" y="-22.699" fill="#231F20" width="4.666" height="4.667"/>
<rect x="273.116" y="-17.011" fill="#231F20" width="4.668" height="4.667"/>
<rect x="256.094" y="-11.385" fill="#231F20" width="4.666" height="4.667"/>
<rect x="256.135" y="-5.698" fill="#231F20" width="4.668" height="4.667"/>
<rect x="261.76" y="-11.365" fill="#231F20" width="4.668" height="4.667"/>
<rect x="261.803" y="-5.677" fill="#231F20" width="4.667" height="4.667"/>
<rect x="267.426" y="-11.365" fill="#231F20" width="4.668" height="4.667"/>
<rect x="267.469" y="-5.677" fill="#231F20" width="4.666" height="4.667"/>
<rect x="273.094" y="-11.344" fill="#231F20" width="4.666" height="4.667"/>
<rect x="273.135" y="-5.657" fill="#231F20" width="4.668" height="4.667"/>
<rect x="278.772" y="-22.709" fill="#231F20" width="4.667" height="4.667"/>
<rect x="278.814" y="-17.021" fill="#231F20" width="4.667" height="4.667"/>
<rect x="284.438" y="-22.709" fill="#231F20" width="4.667" height="4.667"/>
<rect x="284.48" y="-17.021" fill="#231F20" width="4.667" height="4.667"/>
<rect x="290.105" y="-22.688" fill="#231F20" width="4.667" height="4.667"/>
<rect x="290.147" y="-17.001" fill="#231F20" width="4.667" height="4.667"/>
<rect x="278.792" y="-11.354" fill="#231F20" width="4.668" height="4.667"/>
<rect x="278.834" y="-5.667" fill="#231F20" width="4.666" height="4.667"/>
<rect x="284.458" y="-11.354" fill="#231F20" width="4.668" height="4.667"/>
<rect x="284.5" y="-5.667" fill="#231F20" width="4.666" height="4.667"/>
<rect x="290.125" y="-11.334" fill="#231F20" width="4.666" height="4.667"/>
<rect x="290.167" y="-5.646" fill="#231F20" width="4.668" height="4.667"/>
<rect x="295.825" y="-22.698" fill="#231F20" width="4.666" height="4.667"/>
<rect x="295.866" y="-17.011" fill="#231F20" width="4.668" height="4.667"/>
<rect x="301.491" y="-22.678" fill="#231F20" width="4.668" height="4.667"/>
<rect x="301.534" y="-16.99" fill="#231F20" width="4.666" height="4.667"/>
<rect x="307.157" y="-22.678" fill="#231F20" width="4.668" height="4.667"/>
<rect x="307.2" y="-16.99" fill="#231F20" width="4.666" height="4.667"/>
<rect x="312.825" y="-22.657" fill="#231F20" width="4.666" height="4.667"/>
<rect x="312.866" y="-16.97" fill="#231F20" width="4.668" height="4.667"/>
<rect x="295.844" y="-11.344" fill="#231F20" width="4.666" height="4.667"/>
<rect x="295.885" y="-5.656" fill="#231F20" width="4.668" height="4.667"/>
<rect x="301.51" y="-11.323" fill="#231F20" width="4.668" height="4.667"/>
<rect x="301.553" y="-5.636" fill="#231F20" width="4.666" height="4.667"/>
<rect x="307.176" y="-11.323" fill="#231F20" width="4.668" height="4.667"/>
<rect x="307.219" y="-5.636" fill="#231F20" width="4.666" height="4.667"/>
<rect x="312.844" y="-11.303" fill="#231F20" width="4.666" height="4.667"/>
<rect x="312.885" y="-5.615" fill="#231F20" width="4.668" height="4.667"/>
<rect x="187.917" y="-45.667" fill="#231F20" width="4.668" height="4.667"/>
<rect x="187.959" y="-39.979" fill="#231F20" width="4.666" height="4.667"/>
<rect x="193.584" y="-45.646" fill="#231F20" width="4.666" height="4.667"/>
<rect x="193.625" y="-39.958" fill="#231F20" width="4.668" height="4.667"/>
<rect x="199.25" y="-45.646" fill="#231F20" width="4.666" height="4.667"/>
<rect x="199.292" y="-39.958" fill="#231F20" width="4.668" height="4.667"/>
<rect x="204.917" y="-45.625" fill="#231F20" width="4.668" height="4.667"/>
<rect x="204.959" y="-39.938" fill="#231F20" width="4.666" height="4.667"/>
<rect x="187.938" y="-34.312" fill="#231F20" width="4.667" height="4.667"/>
<rect x="187.98" y="-28.625" fill="#231F20" width="4.667" height="4.667"/>
<rect x="193.605" y="-34.292" fill="#231F20" width="4.667" height="4.667"/>
<rect x="193.647" y="-28.604" fill="#231F20" width="4.667" height="4.667"/>
<rect x="199.271" y="-34.292" fill="#231F20" width="4.667" height="4.667"/>
<rect x="199.313" y="-28.604" fill="#231F20" width="4.667" height="4.667"/>
<rect x="204.938" y="-34.271" fill="#231F20" width="4.667" height="4.667"/>
<rect x="204.98" y="-28.583" fill="#231F20" width="4.667" height="4.667"/>
<rect x="210.636" y="-45.635" fill="#231F20" width="4.667" height="4.667"/>
<rect x="210.678" y="-39.948" fill="#231F20" width="4.667" height="4.667"/>
<rect x="216.303" y="-45.615" fill="#231F20" width="4.667" height="4.667"/>
<rect x="216.345" y="-39.927" fill="#231F20" width="4.667" height="4.667"/>
<rect x="221.969" y="-45.615" fill="#231F20" width="4.666" height="4.667"/>
<rect x="222.011" y="-39.927" fill="#231F20" width="4.667" height="4.667"/>
<rect x="227.636" y="-45.594" fill="#231F20" width="4.667" height="4.667"/>
<rect x="227.678" y="-39.907" fill="#231F20" width="4.667" height="4.667"/>
<rect x="210.657" y="-34.281" fill="#231F20" width="4.668" height="4.667"/>
<rect x="210.7" y="-28.593" fill="#231F20" width="4.666" height="4.667"/>
<rect x="216.325" y="-34.26" fill="#231F20" width="4.666" height="4.667"/>
<rect x="216.366" y="-28.573" fill="#231F20" width="4.668" height="4.667"/>
<rect x="221.991" y="-34.26" fill="#231F20" width="4.666" height="4.667"/>
<rect x="222.032" y="-28.573" fill="#231F20" width="4.668" height="4.667"/>
<rect x="227.657" y="-34.24" fill="#231F20" width="4.668" height="4.667"/>
<rect x="227.7" y="-28.552" fill="#231F20" width="4.666" height="4.667"/>
<rect x="233.355" y="-45.604" fill="#231F20" width="4.667" height="4.667"/>
<rect x="233.397" y="-39.917" fill="#231F20" width="4.667" height="4.667"/>
<rect x="239.022" y="-45.583" fill="#231F20" width="4.667" height="4.667"/>
<rect x="239.064" y="-39.896" fill="#231F20" width="4.667" height="4.667"/>
<rect x="244.688" y="-45.583" fill="#231F20" width="4.667" height="4.667"/>
<rect x="244.73" y="-39.896" fill="#231F20" width="4.667" height="4.667"/>
<rect x="250.355" y="-45.563" fill="#231F20" width="4.667" height="4.667"/>
<rect x="250.397" y="-39.875" fill="#231F20" width="4.667" height="4.667"/>
<rect x="233.375" y="-34.25" fill="#231F20" width="4.666" height="4.667"/>
<rect x="233.417" y="-28.562" fill="#231F20" width="4.668" height="4.667"/>
<rect x="239.042" y="-34.229" fill="#231F20" width="4.668" height="4.667"/>
<rect x="239.084" y="-28.542" fill="#231F20" width="4.666" height="4.667"/>
<rect x="244.708" y="-34.229" fill="#231F20" width="4.668" height="4.667"/>
<rect x="244.75" y="-28.542" fill="#231F20" width="4.666" height="4.667"/>
<rect x="250.375" y="-34.208" fill="#231F20" width="4.666" height="4.667"/>
<rect x="250.417" y="-28.521" fill="#231F20" width="4.668" height="4.667"/>
<rect x="256.075" y="-45.573" fill="#231F20" width="4.666" height="4.667"/>
<rect x="256.116" y="-39.885" fill="#231F20" width="4.668" height="4.667"/>
<rect x="261.741" y="-45.552" fill="#231F20" width="4.668" height="4.667"/>
<rect x="261.784" y="-39.865" fill="#231F20" width="4.666" height="4.667"/>
<rect x="267.407" y="-45.552" fill="#231F20" width="4.668" height="4.667"/>
<rect x="267.45" y="-39.865" fill="#231F20" width="4.666" height="4.667"/>
<rect x="273.075" y="-45.532" fill="#231F20" width="4.666" height="4.667"/>
<rect x="273.116" y="-39.844" fill="#231F20" width="4.668" height="4.667"/>
<rect x="256.094" y="-34.218" fill="#231F20" width="4.666" height="4.667"/>
<rect x="256.135" y="-28.531" fill="#231F20" width="4.668" height="4.667"/>
<rect x="261.76" y="-34.198" fill="#231F20" width="4.668" height="4.667"/>
<rect x="261.803" y="-28.51" fill="#231F20" width="4.667" height="4.667"/>
<rect x="267.426" y="-34.198" fill="#231F20" width="4.668" height="4.667"/>
<rect x="267.469" y="-28.51" fill="#231F20" width="4.666" height="4.667"/>
<rect x="273.094" y="-34.177" fill="#231F20" width="4.666" height="4.667"/>
<rect x="273.135" y="-28.49" fill="#231F20" width="4.668" height="4.667"/>
<rect x="278.772" y="-45.542" fill="#231F20" width="4.667" height="4.667"/>
<rect x="278.814" y="-39.854" fill="#231F20" width="4.667" height="4.667"/>
<rect x="284.438" y="-45.542" fill="#231F20" width="4.667" height="4.667"/>
<rect x="284.48" y="-39.854" fill="#231F20" width="4.667" height="4.667"/>
<rect x="290.105" y="-45.521" fill="#231F20" width="4.667" height="4.667"/>
<rect x="290.147" y="-39.834" fill="#231F20" width="4.667" height="4.667"/>
<rect x="278.792" y="-34.188" fill="#231F20" width="4.668" height="4.667"/>
<rect x="278.834" y="-28.5" fill="#231F20" width="4.666" height="4.667"/>
<rect x="284.458" y="-34.188" fill="#231F20" width="4.668" height="4.667"/>
<rect x="284.5" y="-28.5" fill="#231F20" width="4.666" height="4.667"/>
<rect x="290.125" y="-34.167" fill="#231F20" width="4.666" height="4.667"/>
<rect x="290.167" y="-28.479" fill="#231F20" width="4.668" height="4.667"/>
<rect x="295.825" y="-45.531" fill="#231F20" width="4.666" height="4.667"/>
<rect x="295.866" y="-39.844" fill="#231F20" width="4.668" height="4.667"/>
<rect x="301.491" y="-45.511" fill="#231F20" width="4.668" height="4.667"/>
<rect x="301.534" y="-39.823" fill="#231F20" width="4.666" height="4.667"/>
<rect x="307.157" y="-45.511" fill="#231F20" width="4.668" height="4.667"/>
<rect x="307.2" y="-39.823" fill="#231F20" width="4.666" height="4.667"/>
<rect x="312.825" y="-45.49" fill="#231F20" width="4.666" height="4.667"/>
<rect x="312.866" y="-39.803" fill="#231F20" width="4.668" height="4.667"/>
<rect x="295.844" y="-34.177" fill="#231F20" width="4.666" height="4.667"/>
<rect x="295.885" y="-28.489" fill="#231F20" width="4.668" height="4.667"/>
<rect x="301.51" y="-34.156" fill="#231F20" width="4.668" height="4.667"/>
<rect x="301.553" y="-28.469" fill="#231F20" width="4.666" height="4.667"/>
<rect x="307.176" y="-34.156" fill="#231F20" width="4.668" height="4.667"/>
<rect x="307.219" y="-28.469" fill="#231F20" width="4.666" height="4.667"/>
<rect x="312.844" y="-34.136" fill="#231F20" width="4.666" height="4.667"/>
<rect x="312.885" y="-28.448" fill="#231F20" width="4.668" height="4.667"/>
</svg>
