<?xml version="1.0" encoding="utf-8"?>
<!-- Generator: Adobe Illustrator 16.0.0, SVG Export Plug-In . SVG Version: 6.00 Build 0)  -->
<!DOCTYPE svg PUBLIC "-//W3C//DTD SVG 1.1//EN" "http://www.w3.org/Graphics/SVG/1.1/DTD/svg11.dtd">
<svg version="1.1" id="Layer_1" xmlns="http://www.w3.org/2000/svg" xmlns:xlink="http://www.w3.org/1999/xlink" x="0px" y="0px"
	 width="119.541px" height="87.5px" viewBox="0 0 119.541 87.5" enable-background="new 0 0 119.541 87.5" xml:space="preserve">
<path fill="#231F20" d="M13.635,17.031l29.5-12.833l28-0.333l30.166,8.833l15.168,23.333c0,0-0.002,22.166,0.166,22.666
	c0.166,0.5-6.834,13-6.834,13L92.135,83.031l-34.333,3.833l-29-2.333l-23.833-10L2.635,50.364l1.166-18.667L13.635,17.031z"/>
<rect x="1.302" y="69.719" fill="#414042" width="4.667" height="4.666"/>
<rect x="6.968" y="69.719" fill="#414042" width="4.667" height="4.666"/>
<rect x="7.01" y="75.406" fill="#414042" width="4.667" height="4.666"/>
<rect x="12.635" y="69.738" fill="#414042" width="4.667" height="4.668"/>
<rect x="12.677" y="75.426" fill="#414042" width="4.667" height="4.668"/>
<rect x="18.354" y="69.729" fill="#414042" width="4.667" height="4.668"/>
<rect x="18.396" y="75.416" fill="#414042" width="4.667" height="4.668"/>
<rect x="24.021" y="69.75" fill="#414042" width="4.667" height="4.666"/>
<rect x="24.063" y="75.438" fill="#414042" width="4.667" height="4.666"/>
<rect x="29.687" y="69.75" fill="#414042" width="4.667" height="4.666"/>
<rect x="29.729" y="75.438" fill="#414042" width="4.667" height="4.666"/>
<rect x="35.354" y="69.77" fill="#414042" width="4.667" height="4.668"/>
<rect x="35.396" y="75.457" fill="#414042" width="4.667" height="4.668"/>
<rect x="18.375" y="81.084" fill="#414042" width="4.667" height="4.666"/>
<rect x="24.042" y="81.104" fill="#414042" width="4.667" height="4.668"/>
<rect x="29.708" y="81.104" fill="#414042" width="4.667" height="4.668"/>
<rect x="35.375" y="81.125" fill="#414042" width="4.667" height="4.666"/>
<rect x="41.073" y="69.76" fill="#414042" width="4.667" height="4.668"/>
<rect x="41.115" y="75.447" fill="#414042" width="4.667" height="4.668"/>
<rect x="46.74" y="69.781" fill="#414042" width="4.667" height="4.666"/>
<rect x="46.782" y="75.469" fill="#414042" width="4.667" height="4.666"/>
<rect x="52.406" y="69.781" fill="#414042" width="4.667" height="4.666"/>
<rect x="52.448" y="75.469" fill="#414042" width="4.667" height="4.666"/>
<rect x="58.073" y="69.801" fill="#414042" width="4.667" height="4.668"/>
<rect x="58.115" y="75.488" fill="#414042" width="4.667" height="4.668"/>
<rect x="41.093" y="81.115" fill="#414042" width="4.667" height="4.666"/>
<rect x="46.76" y="81.135" fill="#414042" width="4.667" height="4.668"/>
<rect x="52.426" y="81.135" fill="#414042" width="4.667" height="4.668"/>
<rect x="58.093" y="81.156" fill="#414042" width="4.667" height="4.666"/>
<rect x="63.791" y="69.791" fill="#414042" width="4.668" height="4.668"/>
<rect x="63.834" y="75.479" fill="#414042" width="4.666" height="4.668"/>
<rect x="69.459" y="69.812" fill="#414042" width="4.666" height="4.666"/>
<rect x="69.5" y="75.5" fill="#414042" width="4.668" height="4.666"/>
<rect x="75.125" y="69.812" fill="#414042" width="4.666" height="4.666"/>
<rect x="75.166" y="75.5" fill="#414042" width="4.668" height="4.666"/>
<rect x="80.791" y="69.832" fill="#414042" width="4.668" height="4.668"/>
<rect x="80.834" y="75.52" fill="#414042" width="4.666" height="4.668"/>
<rect x="63.812" y="81.146" fill="#414042" width="4.666" height="4.666"/>
<rect x="69.479" y="81.166" fill="#414042" width="4.668" height="4.668"/>
<rect x="75.145" y="81.166" fill="#414042" width="4.668" height="4.668"/>
<rect x="80.812" y="81.188" fill="#414042" width="4.666" height="4.666"/>
<rect x="86.49" y="69.822" fill="#414042" width="4.666" height="4.667"/>
<rect x="86.531" y="75.51" fill="#414042" width="4.668" height="4.667"/>
<rect x="92.156" y="69.822" fill="#414042" width="4.666" height="4.667"/>
<rect x="92.197" y="75.51" fill="#414042" width="4.668" height="4.667"/>
<rect x="97.822" y="69.843" fill="#414042" width="4.668" height="4.667"/>
<rect x="97.865" y="75.53" fill="#414042" width="4.666" height="4.667"/>
<rect x="86.51" y="81.177" fill="#414042" width="4.668" height="4.667"/>
<rect x="92.176" y="81.177" fill="#414042" width="4.668" height="4.667"/>
<rect x="103.541" y="69.833" fill="#414042" width="4.668" height="4.667"/>
<rect x="109.209" y="69.854" fill="#414042" width="4.666" height="4.667"/>
<rect x="1.302" y="46.885" fill="#414042" width="4.667" height="4.668"/>
<rect x="1.344" y="52.572" fill="#414042" width="4.667" height="4.668"/>
<rect x="6.968" y="46.885" fill="#414042" width="4.667" height="4.668"/>
<rect x="7.01" y="52.572" fill="#414042" width="4.667" height="4.668"/>
<rect x="12.635" y="46.906" fill="#414042" width="4.667" height="4.666"/>
<rect x="12.677" y="52.594" fill="#414042" width="4.667" height="4.666"/>
<rect x="1.323" y="58.24" fill="#414042" width="4.667" height="4.666"/>
<rect x="1.365" y="63.928" fill="#414042" width="4.667" height="4.666"/>
<rect x="6.989" y="58.24" fill="#414042" width="4.667" height="4.666"/>
<rect x="7.031" y="63.928" fill="#414042" width="4.667" height="4.666"/>
<rect x="12.656" y="58.26" fill="#414042" width="4.667" height="4.668"/>
<rect x="12.698" y="63.947" fill="#414042" width="4.667" height="4.668"/>
<rect x="18.354" y="46.896" fill="#414042" width="4.667" height="4.666"/>
<rect x="18.396" y="52.584" fill="#414042" width="4.667" height="4.666"/>
<rect x="24.021" y="46.916" fill="#414042" width="4.667" height="4.668"/>
<rect x="24.063" y="52.604" fill="#414042" width="4.667" height="4.668"/>
<rect x="29.687" y="46.916" fill="#414042" width="4.667" height="4.668"/>
<rect x="29.729" y="52.604" fill="#414042" width="4.667" height="4.668"/>
<rect x="35.354" y="46.938" fill="#414042" width="4.667" height="4.666"/>
<rect x="35.396" y="52.625" fill="#414042" width="4.667" height="4.666"/>
<rect x="18.375" y="58.25" fill="#414042" width="4.667" height="4.668"/>
<rect x="18.417" y="63.938" fill="#414042" width="4.667" height="4.668"/>
<rect x="24.042" y="58.271" fill="#414042" width="4.667" height="4.666"/>
<rect x="24.083" y="63.959" fill="#414042" width="4.667" height="4.666"/>
<rect x="29.708" y="58.271" fill="#414042" width="4.667" height="4.666"/>
<rect x="29.75" y="63.959" fill="#414042" width="4.667" height="4.666"/>
<rect x="35.375" y="58.291" fill="#414042" width="4.667" height="4.668"/>
<rect x="35.417" y="63.979" fill="#414042" width="4.667" height="4.668"/>
<rect x="41.073" y="46.928" fill="#414042" width="4.667" height="4.666"/>
<rect x="41.115" y="52.615" fill="#414042" width="4.667" height="4.666"/>
<rect x="46.74" y="46.947" fill="#414042" width="4.667" height="4.668"/>
<rect x="46.782" y="52.635" fill="#414042" width="4.667" height="4.668"/>
<rect x="52.406" y="46.947" fill="#414042" width="4.667" height="4.668"/>
<rect x="52.448" y="52.635" fill="#414042" width="4.667" height="4.668"/>
<rect x="58.073" y="46.969" fill="#414042" width="4.667" height="4.666"/>
<rect x="58.115" y="52.656" fill="#414042" width="4.667" height="4.666"/>
<rect x="41.093" y="58.281" fill="#414042" width="4.667" height="4.668"/>
<rect x="41.135" y="63.969" fill="#414042" width="4.667" height="4.668"/>
<rect x="46.76" y="58.303" fill="#414042" width="4.667" height="4.666"/>
<rect x="46.802" y="63.99" fill="#414042" width="4.667" height="4.666"/>
<rect x="52.426" y="58.303" fill="#414042" width="4.667" height="4.666"/>
<rect x="52.468" y="63.99" fill="#414042" width="4.667" height="4.666"/>
<rect x="58.093" y="58.322" fill="#414042" width="4.667" height="4.668"/>
<rect x="58.135" y="64.01" fill="#414042" width="4.667" height="4.668"/>
<rect x="63.791" y="46.959" fill="#414042" width="4.668" height="4.666"/>
<rect x="63.834" y="52.646" fill="#414042" width="4.666" height="4.666"/>
<rect x="69.459" y="46.979" fill="#414042" width="4.666" height="4.668"/>
<rect x="69.5" y="52.666" fill="#414042" width="4.668" height="4.668"/>
<rect x="75.125" y="46.979" fill="#414042" width="4.666" height="4.668"/>
<rect x="75.166" y="52.666" fill="#414042" width="4.668" height="4.668"/>
<rect x="80.791" y="47" fill="#414042" width="4.668" height="4.666"/>
<rect x="80.834" y="52.688" fill="#414042" width="4.666" height="4.666"/>
<rect x="63.812" y="58.312" fill="#414042" width="4.666" height="4.668"/>
<rect x="63.854" y="64" fill="#414042" width="4.668" height="4.668"/>
<rect x="69.479" y="58.334" fill="#414042" width="4.668" height="4.666"/>
<rect x="69.521" y="64.021" fill="#414042" width="4.666" height="4.666"/>
<rect x="75.145" y="58.334" fill="#414042" width="4.668" height="4.666"/>
<rect x="75.188" y="64.021" fill="#414042" width="4.666" height="4.666"/>
<rect x="80.812" y="58.354" fill="#414042" width="4.666" height="4.668"/>
<rect x="80.854" y="64.041" fill="#414042" width="4.668" height="4.668"/>
<rect x="86.49" y="46.989" fill="#414042" width="4.666" height="4.667"/>
<rect x="86.531" y="52.677" fill="#414042" width="4.668" height="4.667"/>
<rect x="92.156" y="46.989" fill="#414042" width="4.666" height="4.667"/>
<rect x="92.197" y="52.677" fill="#414042" width="4.668" height="4.667"/>
<rect x="97.822" y="47.01" fill="#414042" width="4.668" height="4.667"/>
<rect x="97.865" y="52.697" fill="#414042" width="4.666" height="4.667"/>
<rect x="86.51" y="58.344" fill="#414042" width="4.668" height="4.667"/>
<rect x="86.553" y="64.031" fill="#414042" width="4.666" height="4.667"/>
<rect x="92.176" y="58.344" fill="#414042" width="4.668" height="4.667"/>
<rect x="92.219" y="64.031" fill="#414042" width="4.666" height="4.667"/>
<rect x="97.844" y="58.364" fill="#414042" width="4.666" height="4.667"/>
<rect x="97.885" y="64.052" fill="#414042" width="4.668" height="4.667"/>
<rect x="103.541" y="47" fill="#414042" width="4.668" height="4.667"/>
<rect x="103.584" y="52.688" fill="#414042" width="4.666" height="4.667"/>
<rect x="109.209" y="47.021" fill="#414042" width="4.666" height="4.667"/>
<rect x="109.25" y="52.708" fill="#414042" width="4.668" height="4.667"/>
<rect x="114.875" y="47.021" fill="#414042" width="4.666" height="4.667"/>
<rect x="114.916" y="52.708" fill="#414042" width="4.668" height="4.667"/>
<rect x="103.562" y="58.354" fill="#414042" width="4.666" height="4.667"/>
<rect x="103.604" y="64.042" fill="#414042" width="4.668" height="4.667"/>
<rect x="109.229" y="58.375" fill="#414042" width="4.668" height="4.667"/>
<rect x="109.271" y="64.062" fill="#414042" width="4.666" height="4.667"/>
<rect x="114.895" y="58.375" fill="#414042" width="4.668" height="4.667"/>
<rect x="1.344" y="29.739" fill="#414042" width="4.667" height="4.667"/>
<rect x="6.968" y="24.052" fill="#414042" width="4.667" height="4.667"/>
<rect x="7.01" y="29.739" fill="#414042" width="4.667" height="4.667"/>
<rect x="12.635" y="24.072" fill="#414042" width="4.667" height="4.667"/>
<rect x="12.677" y="29.76" fill="#414042" width="4.667" height="4.667"/>
<rect x="1.323" y="35.406" fill="#414042" width="4.667" height="4.667"/>
<rect x="1.365" y="41.094" fill="#414042" width="4.667" height="4.667"/>
<rect x="6.989" y="35.406" fill="#414042" width="4.667" height="4.667"/>
<rect x="7.031" y="41.094" fill="#414042" width="4.667" height="4.667"/>
<rect x="12.656" y="35.427" fill="#414042" width="4.667" height="4.667"/>
<rect x="12.698" y="41.114" fill="#414042" width="4.667" height="4.667"/>
<rect x="18.354" y="24.062" fill="#414042" width="4.667" height="4.667"/>
<rect x="18.396" y="29.75" fill="#414042" width="4.667" height="4.667"/>
<rect x="24.021" y="24.083" fill="#414042" width="4.667" height="4.667"/>
<rect x="24.063" y="29.771" fill="#414042" width="4.667" height="4.667"/>
<rect x="29.687" y="24.083" fill="#414042" width="4.667" height="4.667"/>
<rect x="29.729" y="29.771" fill="#414042" width="4.667" height="4.667"/>
<rect x="35.354" y="24.104" fill="#414042" width="4.667" height="4.667"/>
<rect x="35.396" y="29.791" fill="#414042" width="4.667" height="4.667"/>
<rect x="18.375" y="35.417" fill="#414042" width="4.667" height="4.667"/>
<rect x="18.417" y="41.104" fill="#414042" width="4.667" height="4.667"/>
<rect x="24.042" y="35.438" fill="#414042" width="4.667" height="4.667"/>
<rect x="24.083" y="41.125" fill="#00AEEF" width="4.667" height="4.667"/>
<rect x="29.708" y="35.438" fill="#00AEEF" width="4.667" height="4.667"/>
<rect x="29.75" y="41.125" fill="#414042" width="4.667" height="4.667"/>
<rect x="35.375" y="35.458" fill="#00AEEF" width="4.667" height="4.667"/>
<rect x="35.417" y="41.146" fill="#414042" width="4.667" height="4.667"/>
<rect x="41.073" y="24.094" fill="#414042" width="4.667" height="4.667"/>
<rect x="41.115" y="29.781" fill="#414042" width="4.667" height="4.667"/>
<rect x="46.74" y="24.114" fill="#414042" width="4.667" height="4.667"/>
<rect x="46.782" y="29.802" fill="#414042" width="4.667" height="4.667"/>
<rect x="52.406" y="24.114" fill="#414042" width="4.667" height="4.667"/>
<rect x="52.448" y="29.802" fill="#414042" width="4.667" height="4.667"/>
<rect x="58.073" y="24.135" fill="#414042" width="4.667" height="4.667"/>
<rect x="58.115" y="29.822" fill="#414042" width="4.667" height="4.667"/>
<rect x="41.093" y="35.448" fill="#00AEEF" width="4.667" height="4.667"/>
<rect x="41.135" y="41.136" fill="#414042" width="4.667" height="4.667"/>
<rect x="46.76" y="35.469" fill="#414042" width="4.667" height="4.667"/>
<rect x="46.802" y="41.156" fill="#00AEEF" width="4.667" height="4.667"/>
<rect x="52.426" y="35.469" fill="#414042" width="4.667" height="4.667"/>
<rect x="52.468" y="41.156" fill="#414042" width="4.667" height="4.667"/>
<rect x="58.093" y="35.489" fill="#414042" width="4.667" height="4.667"/>
<rect x="58.135" y="41.177" fill="#414042" width="4.667" height="4.667"/>
<rect x="63.791" y="24.125" fill="#414042" width="4.668" height="4.667"/>
<rect x="63.834" y="29.812" fill="#414042" width="4.666" height="4.667"/>
<rect x="69.459" y="24.146" fill="#414042" width="4.666" height="4.667"/>
<rect x="69.5" y="29.833" fill="#414042" width="4.668" height="4.667"/>
<rect x="75.125" y="24.146" fill="#414042" width="4.666" height="4.667"/>
<rect x="75.166" y="29.833" fill="#414042" width="4.668" height="4.667"/>
<rect x="80.791" y="24.166" fill="#414042" width="4.668" height="4.667"/>
<rect x="80.834" y="29.854" fill="#414042" width="4.666" height="4.667"/>
<rect x="63.812" y="35.479" fill="#414042" width="4.666" height="4.667"/>
<rect x="63.854" y="41.167" fill="#414042" width="4.668" height="4.667"/>
<rect x="69.479" y="35.5" fill="#414042" width="4.668" height="4.667"/>
<rect x="69.521" y="41.188" fill="#00AEEF" width="4.666" height="4.667"/>
<rect x="75.145" y="35.5" fill="#00AEEF" width="4.668" height="4.667"/>
<rect x="75.188" y="41.188" fill="#414042" width="4.666" height="4.667"/>
<rect x="80.812" y="35.521" fill="#00AEEF" width="4.666" height="4.667"/>
<rect x="80.854" y="41.208" fill="#414042" width="4.668" height="4.667"/>
<rect x="86.49" y="24.156" fill="#414042" width="4.666" height="4.667"/>
<rect x="86.531" y="29.843" fill="#414042" width="4.668" height="4.667"/>
<rect x="92.156" y="24.156" fill="#414042" width="4.666" height="4.667"/>
<rect x="92.197" y="29.843" fill="#414042" width="4.668" height="4.667"/>
<rect x="97.822" y="24.176" fill="#414042" width="4.668" height="4.667"/>
<rect x="97.865" y="29.864" fill="#414042" width="4.666" height="4.667"/>
<rect x="86.51" y="35.51" fill="#00AEEF" width="4.668" height="4.667"/>
<rect x="86.553" y="41.198" fill="#414042" width="4.666" height="4.667"/>
<rect x="92.176" y="35.51" fill="#414042" width="4.668" height="4.667"/>
<rect x="92.219" y="41.198" fill="#00AEEF" width="4.666" height="4.667"/>
<rect x="97.844" y="35.531" fill="#414042" width="4.666" height="4.667"/>
<rect x="97.885" y="41.218" fill="#414042" width="4.668" height="4.667"/>
<rect x="103.541" y="24.167" fill="#414042" width="4.668" height="4.667"/>
<rect x="103.584" y="29.854" fill="#414042" width="4.666" height="4.667"/>
<rect x="109.209" y="24.187" fill="#414042" width="4.666" height="4.667"/>
<rect x="109.25" y="29.875" fill="#414042" width="4.668" height="4.667"/>
<rect x="114.916" y="29.875" fill="#414042" width="4.668" height="4.667"/>
<rect x="103.562" y="35.521" fill="#414042" width="4.666" height="4.667"/>
<rect x="103.604" y="41.208" fill="#414042" width="4.668" height="4.667"/>
<rect x="109.229" y="35.542" fill="#414042" width="4.668" height="4.667"/>
<rect x="109.271" y="41.229" fill="#414042" width="4.666" height="4.667"/>
<rect x="114.895" y="35.542" fill="#414042" width="4.668" height="4.667"/>
<rect x="114.938" y="41.229" fill="#414042" width="4.666" height="4.667"/>
<rect x="7.031" y="18.261" fill="#414042" width="4.667" height="4.667"/>
<rect x="12.656" y="12.594" fill="#414042" width="4.667" height="4.667"/>
<rect x="12.698" y="18.281" fill="#414042" width="4.667" height="4.667"/>
<rect x="24.063" y="6.938" fill="#414042" width="4.667" height="4.667"/>
<rect x="29.729" y="6.938" fill="#414042" width="4.667" height="4.667"/>
<rect x="35.396" y="6.958" fill="#414042" width="4.667" height="4.667"/>
<rect x="18.375" y="12.584" fill="#414042" width="4.667" height="4.667"/>
<rect x="18.417" y="18.271" fill="#414042" width="4.667" height="4.667"/>
<rect x="24.042" y="12.604" fill="#414042" width="4.667" height="4.667"/>
<rect x="24.083" y="18.292" fill="#414042" width="4.667" height="4.667"/>
<rect x="29.708" y="12.604" fill="#414042" width="4.667" height="4.667"/>
<rect x="29.75" y="18.292" fill="#414042" width="4.667" height="4.667"/>
<rect x="35.375" y="12.625" fill="#414042" width="4.667" height="4.667"/>
<rect x="35.417" y="18.312" fill="#414042" width="4.667" height="4.667"/>
<rect x="41.073" y="1.261" fill="#414042" width="4.667" height="4.667"/>
<rect x="41.115" y="6.948" fill="#414042" width="4.667" height="4.667"/>
<rect x="46.74" y="1.281" fill="#414042" width="4.667" height="4.667"/>
<rect x="46.782" y="6.969" fill="#414042" width="4.667" height="4.667"/>
<rect x="52.406" y="1.281" fill="#414042" width="4.667" height="4.667"/>
<rect x="52.448" y="6.969" fill="#414042" width="4.667" height="4.667"/>
<rect x="58.073" y="1.302" fill="#414042" width="4.667" height="4.667"/>
<rect x="58.115" y="6.989" fill="#414042" width="4.667" height="4.667"/>
<rect x="41.093" y="12.615" fill="#414042" width="4.667" height="4.667"/>
<rect x="41.135" y="18.303" fill="#414042" width="4.667" height="4.667"/>
<rect x="46.76" y="12.636" fill="#414042" width="4.667" height="4.667"/>
<rect x="46.802" y="18.323" fill="#414042" width="4.667" height="4.667"/>
<rect x="52.426" y="12.636" fill="#414042" width="4.667" height="4.667"/>
<rect x="52.468" y="18.323" fill="#414042" width="4.667" height="4.667"/>
<rect x="58.093" y="12.656" fill="#414042" width="4.667" height="4.667"/>
<rect x="58.135" y="18.344" fill="#414042" width="4.667" height="4.667"/>
<rect x="63.791" y="1.292" fill="#414042" width="4.668" height="4.667"/>
<rect x="63.834" y="6.979" fill="#414042" width="4.666" height="4.667"/>
<rect x="69.459" y="1.312" fill="#414042" width="4.666" height="4.667"/>
<rect x="69.5" y="7" fill="#414042" width="4.668" height="4.667"/>
<rect x="75.125" y="1.312" fill="#414042" width="4.666" height="4.667"/>
<rect x="75.166" y="7" fill="#414042" width="4.668" height="4.667"/>
<rect x="80.834" y="7.021" fill="#414042" width="4.666" height="4.667"/>
<rect x="63.812" y="12.646" fill="#414042" width="4.666" height="4.667"/>
<rect x="63.854" y="18.334" fill="#414042" width="4.668" height="4.667"/>
<rect x="69.479" y="12.667" fill="#414042" width="4.668" height="4.667"/>
<rect x="69.521" y="18.354" fill="#414042" width="4.666" height="4.667"/>
<rect x="75.145" y="12.667" fill="#414042" width="4.668" height="4.667"/>
<rect x="75.188" y="18.354" fill="#414042" width="4.666" height="4.667"/>
<rect x="80.812" y="12.688" fill="#414042" width="4.666" height="4.667"/>
<rect x="80.854" y="18.375" fill="#414042" width="4.668" height="4.667"/>
<rect x="86.531" y="7.01" fill="#414042" width="4.668" height="4.667"/>
<rect x="92.197" y="7.01" fill="#414042" width="4.668" height="4.667"/>
<rect x="86.51" y="12.677" fill="#414042" width="4.668" height="4.667"/>
<rect x="86.553" y="18.365" fill="#414042" width="4.666" height="4.667"/>
<rect x="92.176" y="12.677" fill="#414042" width="4.668" height="4.667"/>
<rect x="92.219" y="18.365" fill="#414042" width="4.666" height="4.667"/>
<rect x="97.844" y="12.698" fill="#414042" width="4.666" height="4.667"/>
<rect x="97.885" y="18.385" fill="#414042" width="4.668" height="4.667"/>
<rect x="103.604" y="18.375" fill="#414042" width="4.668" height="4.667"/>
</svg>
